<svg height="2096" viewBox="0 0 1999 2096" width="1999" xmlns="http://www.w3.org/2000/svg"><g fill="none" fill-rule="nonzero"><path d="m639.845205 1210.52377-25.070083 24.36446c-3.318307 3.22491-8.622633 3.1492-11.847543-.16911-1.490977-1.53416-2.338618-3.58054-2.369151-5.71964l-.498949-34.9555-34.955504-.49895c-4.626753-.06604-8.32394-3.8703-8.25877-8.49705.031405-2.1391.879046-4.18548 2.370023-5.71964l24.364463-25.07009-24.364463-25.07008c-3.22491-3.31831-3.149197-8.62263.16911-11.84754 1.534158-1.49098 3.580544-2.33862 5.719637-2.36915l34.955504-.49895.498949-34.95551c.066041-4.62675 3.870303-8.32394 8.497056-8.25877 2.139094.03141 4.18548.87905 5.719638 2.37003l25.070083 24.36446 25.070084-24.36446c3.318307-3.22491 8.622633-3.1492 11.847543.16911 1.490977 1.53415 2.338618 3.58054 2.369151 5.71963l.498949 34.95551 34.955504.49895c4.626753.06604 8.32394 3.8703 8.258769 8.49705-.031404 2.1391-.879045 4.18548-2.370022 5.71964l-24.364463 25.07008 24.364463 25.07009c3.22491 3.31831 3.149197 8.62263-.16911 11.84754-1.534158 1.49098-3.580544 2.33862-5.719637 2.36915l-34.955504.49895-.498949 34.9555c-.066041 4.62676-3.870303 8.32394-8.497056 8.25877-2.139094-.0314-4.18548-.87904-5.719638-2.37002z" fill="#ffc6c7" transform="matrix(.93358043 .35836795 -.35836795 .93358043 456.14741 -152.634673)"/><path d="m1225.84596 791.892156 43.55703 43.557028-35.77899 35.778987c-4.29569 4.295693-11.26038 4.295693-15.55608 0l-28.00094-28.000947c-4.2957-4.295693-4.2957-11.260388 0-15.556081zm87.11406 0 35.77899 35.778987c4.29569 4.295693 4.29569 11.260388 0 15.556081l-28.00095 28.000947c-4.29569 4.295693-11.26039 4.295693-15.55608 0l-35.77899-35.778987zm-79.33602-80.220445 35.77899 35.778987-43.55703 43.557028-35.77898-35.778987c-4.2957-4.295693-4.2957-11.260388 0-15.556081l28.00094-28.000947c4.2957-4.295693 11.26039-4.295693 15.55608 0zm87.11406 0 28.00095 28.000947c4.29569 4.295693 4.29569 11.260388 0 15.556081l-35.77899 35.778987-43.55703-43.557028 35.77899-35.778987c4.29569-4.295693 11.26039-4.295693 15.55608 0z" fill="#52ccea"/><path d="m1398.30418 1727.73471 46.75523 19.36665c4.13562 1.71303 7.42135 4.99876 9.13438 9.13438l19.36664 46.75522c1.71303 4.13562 1.71303 8.78235 0 12.91796l-19.36664 46.75523c-1.71303 4.13561-4.99876 7.42134-9.13438 9.13437l-46.75523 19.36665c-4.13561 1.71303-8.78234 1.71303-12.91795 0l-46.75523-19.36665c-4.13561-1.71303-7.42135-4.99876-9.13437-9.13437l-19.36665-46.75523c-1.71303-4.13561-1.71303-8.78234 0-12.91796l19.36665-46.75522c1.71302-4.13562 4.99876-7.42135 9.13437-9.13438l46.75523-19.36665c4.13561-1.71303 8.78234-1.71303 12.91795 0z" fill="#6ba8a9"/><path d="m1629.84197 169.902801c14.53707-14.537068 38.10632-14.537068 52.64338 0 14.3917 14.391696 14.53562 37.635829.43175 52.204574l-.57215.578479c.2678.249919.53209.506593.79346.767967 14.53707 14.537068 14.53707 38.106311 0 52.643378-14.53706 14.537068-38.10631 14.537068-52.64337 0l-.12662-.128666-.3272.327907-.32667-.32684-.3264.32684-.32853-.327907-.12529.128666c-14.39169 14.391697-37.63583 14.535614-52.20457.431751l-.43881-.431751c-14.53706-14.537067-14.53706-38.10631 0-52.643378.26138-.261374.52567-.518048.79278-.770024l-.13971-.137618c-14.53707-14.537068-14.53707-38.106311 0-52.643378 14.53706-14.537068 38.10631-14.537068 52.64337 0l.12716.129732z" fill="#4dd599" transform="matrix(.98162718 -.190809 .190809 .98162718 -12.607957 315.06136)"/><path d="m1762.35448 1232.66361-24.7336 6.55137c-4.48628 1.18831-9.08644-1.48522-10.27475-5.9715-.37351-1.4101-.37351-2.89315 0-4.30326l6.55136-24.7336c3.59499-13.57227 3.59499-27.84662 0-41.41889l-6.55136-24.7336c-1.18832-4.48628 1.48521-9.08644 5.97149-10.27476 1.4101-.3735 2.89315-.3735 4.30326 0l24.7336 6.55137c13.57227 3.59499 27.84662 3.59499 41.41889 0l24.7336-6.55137c4.48628-1.18831 9.08644 1.48522 10.27476 5.9715.3735 1.4101.3735 2.89315 0 4.30326l-6.55137 24.7336c-3.59499 13.57227-3.59499 27.84662 0 41.41889l6.55137 24.7336c1.18831 4.48628-1.48522 9.08644-5.9715 10.27476-1.4101.3735-2.89315.3735-4.30326 0l-24.7336-6.55137c-13.57227-3.59499-27.84662-3.59499-41.41889 0z" fill="#ffdc34" transform="matrix(.81915204 .57357644 -.57357644 .81915204 1001.289558 -808.690408)"/><path d="m260.479793 1729.41194c2.01622-10.37256 12.059308-17.1467 22.431863-15.13048 10.372556 2.01622 17.146704 12.0593 15.130484 22.43186-2.016221 10.37256-12.059308 17.1467-22.431864 15.13048s-17.146704-12.0593-15.130483-22.43186zm-75.124694-14.60276c2.016221-10.37256 12.059308-17.14671 22.431864-15.13048 10.372556 2.01622 17.146704 12.0593 15.130483 22.43186-2.016221 10.37255-12.059308 17.1467-22.431864 15.13048-10.372555-2.01622-17.146703-12.05931-15.130483-22.43186zm44.863728-30.26097c2.01622-10.37255 12.059308-17.1467 22.431863-15.13048 10.372556 2.01622 17.146704 12.05931 15.130483 22.43186-2.01622 10.37256-12.059308 17.14671-22.431863 15.13049-10.372556-2.01622-17.146704-12.05931-15.130483-22.43187zm44.863727-30.26096c2.016221-10.37256 12.059308-17.14671 22.431864-15.13049 10.372555 2.01622 17.146703 12.05931 15.130483 22.43187-2.016221 10.37255-12.059308 17.1467-22.431864 15.13048s-17.146704-12.05931-15.130483-22.43186zm-75.124694-14.60277c2.016221-10.37255 12.059308-17.1467 22.431864-15.13048s17.146704 12.05931 15.130483 22.43187c-2.01622 10.37255-12.059308 17.1467-22.431863 15.13048-10.372556-2.01622-17.146704-12.05931-15.130484-22.43187z" fill="#fa697c" transform="matrix(.93969262 .34202014 -.34202014 .93969262 592.414568 16.647836)"/><path d="m318.396009 385.523846v44c0 11.045695-8.954305 20-20 20h-44zm-128 0 64 64h-44c-11.045695 0-20-8.954305-20-20zm108-64c11.045695 0 20 8.954305 20 20v44l-64-64zm-44 0-64 64v-44c0-11.045695 8.954305-20 20-20z" fill="#9b45e4" transform="matrix(.8660254 -.5 .5 .8660254 -158.67932 178.848406)"/></g></svg>