<svg width="183" height="172" viewBox="0 0 183 172" fill="none" xmlns="http://www.w3.org/2000/svg">
<g filter="url(#filter0_d)">
<path d="M46.3036 84.4976C45.382 84.4974 44.4767 84.2553 43.6772 83.7956L35.3238 78.8337C34.074 78.1364 34.6848 77.8913 35.0982 77.7452C36.4173 77.326 37.6796 76.7452 38.8568 76.0157C38.9556 75.9699 39.0645 75.9504 39.173 75.9586C39.2815 75.9667 39.3862 76.0026 39.477 76.0629L45.8948 79.8797C46.0143 79.9425 46.1473 79.9754 46.2823 79.9754C46.4173 79.9754 46.5504 79.9425 46.6701 79.8797L71.6972 65.3945C71.8134 65.3236 71.9094 65.2239 71.9759 65.105C72.0426 64.9863 72.0778 64.8523 72.0778 64.716V35.7501C72.0778 35.6113 72.0424 35.4748 71.9749 35.3536C71.9074 35.2324 71.8102 35.1304 71.6925 35.0574L46.6935 20.5816C46.5761 20.5142 46.4433 20.4787 46.3083 20.4787C46.173 20.4787 46.0402 20.5142 45.923 20.5816L20.9144 35.0574C20.7941 35.1276 20.6941 35.2279 20.624 35.3485C20.554 35.4691 20.5165 35.6058 20.515 35.7454V64.7066C20.5147 64.8434 20.5506 64.9779 20.6191 65.0963C20.6876 65.2148 20.7863 65.3127 20.905 65.3804L27.7455 69.3527C31.4665 71.2375 33.7405 69.0182 33.7405 66.8082V38.2193C33.7392 38.1239 33.7571 38.0292 33.793 37.9408C33.829 37.8524 33.8823 37.7722 33.9498 37.7049C34.0173 37.6377 34.0976 37.5847 34.186 37.5492C34.2743 37.5137 34.3688 37.4964 34.464 37.4983H37.6353C37.7298 37.4977 37.8236 37.5159 37.9111 37.5519C37.9986 37.5879 38.0781 37.641 38.145 37.7081C38.2118 37.7752 38.2648 37.8549 38.3007 37.9427C38.3366 38.0304 38.3547 38.1244 38.3541 38.2193V66.8176C38.3541 71.7936 35.648 74.6539 30.945 74.6539C29.498 74.6539 28.3563 74.6539 25.1756 73.0847L18.5981 69.2867C17.8045 68.8166 17.1472 68.1468 16.6915 67.3433C16.2357 66.5399 15.9973 65.6309 16 64.7066V35.7454C15.9977 34.8184 16.2393 33.9072 16.7005 33.1038C17.1616 32.3005 17.8259 31.6333 18.6263 31.1698L43.6772 16.6752C44.4839 16.2322 45.3887 16 46.3083 16C47.2277 16 48.1325 16.2322 48.9391 16.6752L73.9571 31.1746C74.7598 31.6376 75.4269 32.304 75.892 33.107C76.3569 33.91 76.6035 34.8215 76.6069 35.7501V64.716C76.6042 65.6413 76.3604 66.5498 75.8997 67.3515C75.439 68.1532 74.7776 68.8204 73.9806 69.2867L48.9391 83.7815C48.1367 84.2466 47.2257 84.4904 46.2989 84.4882L46.3036 84.4976ZM54.0555 64.537C43.1087 64.537 40.8113 59.4947 40.8113 55.268C40.8113 55.08 40.8845 54.8995 41.015 54.7647C41.1458 54.63 41.3239 54.5518 41.5113 54.5471H44.7437C44.9163 54.5484 45.083 54.6109 45.2138 54.7242C45.3446 54.8372 45.4312 54.9932 45.4579 55.1643C45.9277 58.4628 47.398 60.1357 54.0227 60.1357C59.2942 60.1357 61.5397 58.9388 61.5397 56.1349C61.5397 54.5187 60.9007 53.3078 52.7071 52.516C45.8526 51.8375 41.6194 50.3201 41.6194 44.8258C41.6194 39.7602 45.876 36.7349 53.0125 36.7349C60.9994 36.7349 64.9977 39.5246 65.4957 45.5185C65.5038 45.6201 65.491 45.7225 65.4578 45.8192C65.4247 45.9156 65.372 46.0041 65.303 46.0793C65.1636 46.2237 64.9727 46.3068 64.7721 46.31H61.5209C61.357 46.31 61.198 46.2539 61.0699 46.151C60.942 46.0484 60.8525 45.905 60.8162 45.7447C60.0362 42.2717 58.1431 41.1597 52.9984 41.1597C47.2432 41.1597 46.5714 43.1671 46.5714 44.675C46.5714 46.5034 47.3605 47.0311 55.1315 48.0677C62.8223 49.0951 66.4729 50.537 66.4729 55.9606C66.4729 61.3844 61.925 64.5605 53.9945 64.5605" fill="white"/>
<path d="M159.101 88.7859L153.218 76.2854L147.319 63.7845L141.435 51.2842L123.002 44.6386L35.1344 85.6365L28.4678 103.992L34.3512 116.492L46.1175 141.508L64.5668 148.154L152.434 107.157L159.101 88.7859Z" fill="white"/>
<path d="M64.2317 155.992C63.4312 155.956 62.6407 155.8 61.8862 155.531L43.4526 148.885C42.4775 148.535 41.5816 147.997 40.8158 147.301C40.05 146.605 39.4295 145.766 38.9899 144.831L21.3395 107.33C20.8981 106.396 20.6462 105.384 20.5983 104.353C20.5504 103.321 20.7074 102.291 21.0604 101.32L27.79 82.9675C28.503 81.0127 29.9664 79.4205 31.8584 78.5404L119.615 37.5377C120.558 37.0944 121.579 36.8419 122.621 36.7948C123.663 36.7476 124.703 36.9069 125.682 37.2632L144.113 43.9715C145.088 44.3217 145.984 44.8602 146.75 45.5558C147.516 46.2514 148.136 47.0907 148.576 48.0254L166.226 85.5263C167.114 87.4091 167.214 89.5654 166.506 91.5213L159.841 109.829C159.487 110.799 158.943 111.688 158.242 112.448C157.542 113.207 156.697 113.822 155.757 114.256L67.906 155.254C66.7601 155.795 65.4987 156.049 64.2317 155.992ZM51.8734 135.238L64.1726 139.674L146.135 101.423L150.522 89.1732L135.695 57.5563L123.396 53.1201L41.432 91.4026L36.9833 103.618L51.8734 135.238Z" fill="white"/>
<path d="M64.568 148.154L46.1187 141.508L34.3525 116.492L41.0191 98.137L128.886 57.1391L152.435 107.157L64.568 148.154Z" fill="#00FFAC"/>
<path d="M64.5503 148.546L64.4086 148.54L45.9927 141.848C45.8926 141.808 45.8112 141.732 45.7655 141.634L33.9971 116.665C33.9619 116.568 33.9664 116.461 34.0099 116.367L40.6765 98.0124C40.694 97.9615 40.7222 97.915 40.7593 97.8759C40.7962 97.8369 40.8412 97.8062 40.8911 97.7859L128.727 56.7868C128.773 56.7648 128.823 56.7524 128.875 56.7502C128.926 56.7482 128.977 56.7563 129.025 56.7746C129.073 56.7929 129.116 56.8206 129.153 56.856C129.19 56.8916 129.219 56.9341 129.239 56.9814L152.788 106.983C152.824 107.08 152.819 107.187 152.776 107.281C152.758 107.332 152.73 107.378 152.693 107.417C152.656 107.457 152.611 107.487 152.561 107.507L64.7254 148.507C64.6722 148.537 64.6111 148.55 64.5503 148.546ZM46.4151 141.191L64.538 147.729L151.906 106.961L128.784 57.6686L41.3216 98.4167L34.7778 116.479L46.4151 141.191Z" fill="#3D3DFF"/>
<path d="M68.9987 107.955L41.0186 98.137L128.886 57.1391L138.185 75.6742L68.9987 107.955Z" fill="#00FFAC"/>
<path d="M69.0276 108.38L39.9756 98.1865L129.065 56.6285L138.728 75.8859L69.0276 108.38ZM42.0613 98.0873L68.9851 107.53L137.657 75.4947L128.705 57.6651L42.0613 98.0873Z" fill="#3D3DFF"/>
<path d="M146.549 94.6411L137.72 75.8869L69.0098 107.948L77.8384 126.702L146.549 94.6411Z" fill="#00FFAC"/>
<path d="M77.8152 127.097C77.7445 127.094 77.6758 127.072 77.6164 127.034C77.5568 126.995 77.5091 126.942 77.4777 126.879L68.6446 108.128C68.6093 108.031 68.614 107.924 68.6572 107.83C68.6748 107.779 68.703 107.733 68.7401 107.694C68.7772 107.655 68.8222 107.624 68.8721 107.604L137.545 75.5369C137.641 75.4961 137.75 75.4936 137.848 75.53C137.946 75.5663 138.027 75.6385 138.073 75.7322L146.906 94.4829C146.947 94.5789 146.949 94.6869 146.913 94.7846C146.876 94.8823 146.804 94.9624 146.71 95.0084L77.9431 127.056L77.8152 127.097ZM69.5267 108.15L77.9799 126.193L146.024 94.4609L137.523 76.4152L69.5267 108.15Z" fill="#3D3DFF"/>
<path d="M128.888 57.1411L123.002 44.6384L35.1348 85.6378L41.0205 98.1405L128.888 57.1411Z" fill="#00FFAC"/>
<path d="M41.0011 98.5288C40.9304 98.526 40.8616 98.504 40.8023 98.4657C40.7427 98.4271 40.6949 98.3735 40.6635 98.3102L34.7801 85.8099C34.7571 85.7637 34.7435 85.7133 34.7401 85.6616C34.7367 85.6101 34.7436 85.5585 34.7603 85.5095C34.7771 85.4605 34.8034 85.4155 34.8377 85.3767C34.872 85.3379 34.9136 85.3062 34.9603 85.2837L122.843 44.2865C122.891 44.2683 122.943 44.2598 122.994 44.2621C123.045 44.2643 123.096 44.2769 123.142 44.2992C123.233 44.3392 123.308 44.409 123.355 44.4967L129.237 57.0128C129.26 57.0578 129.273 57.107 129.277 57.1574C129.28 57.2079 129.273 57.2583 129.256 57.3058C129.239 57.3535 129.213 57.3973 129.179 57.4346C129.145 57.472 129.104 57.5021 129.058 57.5232L41.192 98.4899L41.0011 98.5288ZM35.6622 85.8319L41.211 97.6742L128.356 56.9594L122.806 45.1641L35.6622 85.8319Z" fill="#3D3DFF"/>
<path d="M128.885 57.1391L118.893 84.6796L127.71 103.43L152.434 107.157L159.101 88.7859L147.319 63.7847L128.885 57.1391Z" fill="#00FFAC"/>
<path d="M152.683 107.591L127.442 103.795L118.466 84.693L118.472 84.5518L128.603 56.7188L147.565 63.5439L159.527 88.7726L152.683 107.591ZM127.977 103.08L152.168 106.721L158.674 88.8146L147.115 64.1057L129.131 57.652L119.319 84.6665L127.977 103.08Z" fill="#3D3DFF"/>
<path d="M123.002 44.6386L141.435 51.2842L147.319 63.7845L128.885 57.1391L123.002 44.6386Z" fill="white"/>
<path d="M147.317 64.1772L147.192 64.1717L128.761 57.4477C128.711 57.4331 128.665 57.4077 128.626 57.3735C128.586 57.3394 128.555 57.2971 128.533 57.2497L122.65 44.7492C122.607 44.6834 122.585 44.6055 122.588 44.5269C122.592 44.448 122.62 44.3723 122.669 44.3105C122.721 44.2517 122.79 44.2099 122.867 44.1908C122.944 44.1715 123.025 44.176 123.099 44.2032L141.577 50.9136C141.67 50.9571 141.749 51.0256 141.805 51.1117L147.688 63.6277C147.724 63.693 147.741 63.7672 147.738 63.8419C147.735 63.9166 147.712 63.9888 147.67 64.0508C147.626 64.0993 147.571 64.1364 147.51 64.1584C147.448 64.1804 147.382 64.1868 147.317 64.1772ZM129.182 56.8219L146.56 63.0926L141.09 51.5993L123.76 45.3308L129.182 56.8219Z" fill="#3D3DFF"/>
<path d="M64.5674 148.155L77.8317 126.705L127.71 103.43L152.434 107.157L64.5674 148.155Z" fill="#00FFAC"/>
<path d="M64.5506 148.546C64.4975 148.543 64.4453 148.53 64.3976 148.506C64.3499 148.482 64.3073 148.449 64.2727 148.409C64.223 148.342 64.198 148.261 64.2015 148.178C64.205 148.095 64.2371 148.016 64.2922 147.954L77.5551 126.536C77.5978 126.475 77.654 126.424 77.7193 126.386L127.598 103.111C127.671 103.098 127.747 103.101 127.818 103.12L152.527 106.846C152.611 106.856 152.69 106.893 152.75 106.953C152.811 107.013 152.849 107.091 152.86 107.175C152.872 107.258 152.858 107.344 152.817 107.419C152.777 107.494 152.714 107.553 152.637 107.589L64.726 148.507C64.6726 148.537 64.6117 148.55 64.5506 148.546ZM78.0865 127.015L65.5843 147.24L151.086 107.35L127.819 103.843L78.0865 127.015Z" fill="#3D3DFF"/>
<path d="M41.0179 98.1368L35.1344 85.6366L28.4678 103.992L34.3512 116.492L41.0179 98.1368Z" fill="white"/>
<path d="M34.3354 116.884C34.2646 116.881 34.1958 116.859 34.1364 116.821C34.077 116.782 34.0291 116.728 33.9978 116.665L28.1143 104.165C28.079 104.068 28.0836 103.961 28.1271 103.867L34.7629 85.4951C34.7925 85.4237 34.8418 85.3621 34.9051 85.3176C34.9684 85.2731 35.0432 85.2474 35.1206 85.2434C35.1972 85.2385 35.2736 85.2568 35.3395 85.2961C35.4055 85.3354 35.4578 85.3938 35.4896 85.4632L41.3409 97.978C41.3592 98.0258 41.3676 98.077 41.3654 98.1281C41.3631 98.1793 41.3505 98.2295 41.3283 98.2758L34.7245 116.634C34.6966 116.706 34.6478 116.769 34.5841 116.813C34.5204 116.858 34.4448 116.883 34.3668 116.885L34.3354 116.884ZM28.895 103.979L34.2855 115.468L40.5767 98.1494L35.1862 86.6596L28.895 103.979Z" fill="#3D3DFF"/>
<path d="M127.711 103.43L152.436 107.141L159.103 88.7701L153.22 76.2698C153.387 83.0099 151.007 89.5658 146.552 94.6405C144.148 97.2693 141.246 99.3989 138.013 100.907C134.779 102.415 131.278 103.273 127.711 103.43Z" fill="white"/>
<path d="M152.418 107.548L127.662 103.82C127.564 103.808 127.473 103.759 127.41 103.684C127.345 103.609 127.312 103.512 127.317 103.413C127.327 103.317 127.37 103.227 127.439 103.158C127.508 103.09 127.599 103.047 127.696 103.037C134.784 102.721 141.455 99.618 146.246 94.4076C150.647 89.4172 152.996 82.9565 152.823 76.3159C152.819 76.2254 152.848 76.1368 152.902 76.0646C152.957 75.9927 153.035 75.9417 153.124 75.9205C153.213 75.9002 153.306 75.9113 153.387 75.9521C153.469 75.9927 153.534 76.0604 153.571 76.1438L159.457 88.597C159.492 88.6939 159.487 88.801 159.444 88.8947L152.808 107.282C152.778 107.362 152.725 107.43 152.655 107.477C152.585 107.525 152.502 107.55 152.418 107.548ZM130.83 103.485L152.17 106.706L158.676 88.799L153.602 78.0137C153.414 84.2488 151.03 90.2189 146.866 94.8784C142.703 99.5379 137.026 102.59 130.83 103.5L130.83 103.485Z" fill="#3D3DFF"/>
<path d="M132.514 78.0406C134.748 78.2071 136.694 76.5374 136.86 74.3114C137.025 72.0852 135.349 70.1458 133.115 69.9791C130.881 69.8127 128.936 71.4823 128.77 73.7083C128.604 75.9346 130.281 77.874 132.514 78.0406Z" fill="white"/>
<path fill-rule="evenodd" clip-rule="evenodd" d="M132.568 77.3292C134.412 77.4667 136.012 76.0889 136.149 74.2583C136.285 72.4279 134.906 70.828 133.062 70.6905C131.218 70.553 129.617 71.9309 129.481 73.7612C129.345 75.5918 130.723 77.1917 132.568 77.3292ZM136.86 74.3114C136.694 76.5374 134.748 78.2071 132.514 78.0406C130.281 77.874 128.604 75.9346 128.77 73.7083C128.936 71.4823 130.881 69.8127 133.115 69.9791C135.349 70.1458 137.025 72.0852 136.86 74.3114Z" fill="#3D3DFF"/>
<path d="M141.435 51.2842L128.885 57.1391L123.002 44.6386L141.435 51.2842Z" fill="#00FFAC"/>
<path d="M128.868 57.5308C128.797 57.5281 128.728 57.5063 128.669 57.4677C128.61 57.4291 128.562 57.3755 128.53 57.3122L122.647 44.812C122.603 44.7459 122.582 44.6683 122.585 44.5894C122.589 44.5108 122.617 44.4351 122.665 44.373C122.718 44.3142 122.787 44.2724 122.864 44.2534C122.941 44.2343 123.022 44.2385 123.096 44.2657L141.577 50.9133C141.65 50.9413 141.712 50.99 141.757 51.0533C141.802 51.1168 141.827 51.192 141.83 51.2697C141.837 51.3463 141.819 51.4235 141.78 51.4895C141.74 51.5558 141.68 51.6074 141.609 51.6371L129.06 57.4605C129.003 57.4991 128.937 57.5234 128.868 57.5308ZM123.76 45.3307L129.083 56.5508L140.347 51.2692L123.76 45.3307Z" fill="#3D3DFF"/>
<path d="M41.0173 98.137L35.1338 85.6366L72.7841 68.0726C60.1199 75.6601 49.2775 85.9162 41.0178 98.1212L41.0173 98.137Z" fill="white"/>
<path d="M41.0019 98.5287C40.9329 98.5268 40.8662 98.505 40.8091 98.4664C40.7522 98.4278 40.7074 98.3739 40.6801 98.3109L34.7967 85.8107C34.7737 85.7642 34.7601 85.714 34.7567 85.6623C34.7533 85.6109 34.7602 85.5592 34.7769 85.5102C34.7937 85.4613 34.82 85.4163 34.8543 85.3774C34.8885 85.3386 34.9302 85.307 34.9768 85.2845L72.5963 67.7034C72.6886 67.6618 72.7932 67.6574 72.8886 67.6905C72.9841 67.7239 73.0629 67.7927 73.1089 67.8822C73.1332 67.9254 73.1483 67.9732 73.1539 68.0224C73.1596 68.0713 73.1554 68.1213 73.1416 68.1688C73.1277 68.2162 73.1047 68.2608 73.0738 68.2993C73.0429 68.3379 73.0046 68.3703 72.9611 68.394C64.7971 73.2998 57.3679 79.3258 50.8919 86.2946C47.3953 90.0626 44.1968 94.0945 41.3249 98.3542C41.2927 98.4105 41.2455 98.4568 41.1886 98.4877C41.1315 98.5186 41.0667 98.5327 41.0019 98.5287ZM35.663 85.8319L41.0838 97.3547C43.8775 93.2684 46.9737 89.3957 50.3466 85.7689C55.5249 80.1865 61.3187 75.2034 67.6181 70.9138L35.663 85.8319Z" fill="#3D3DFF"/>
<path d="M77.8318 126.705L68.999 107.955L118.878 84.6791C107.902 89.3515 98.1691 96.5055 90.4517 105.574C85.1179 111.886 80.8553 119.024 77.8318 126.705Z" fill="white"/>
<path d="M77.8152 127.097C77.7445 127.094 77.6758 127.072 77.6164 127.034C77.5568 126.995 77.5091 126.942 77.4777 126.879L68.6446 108.128C68.6093 108.031 68.614 107.924 68.6572 107.83C68.6748 107.779 68.703 107.733 68.7401 107.694C68.7772 107.655 68.8222 107.624 68.8721 107.604L114.086 86.4842C115.601 85.7166 117.159 85.0453 118.735 84.3274C118.825 84.3054 118.919 84.3156 119.002 84.3559C119.085 84.3962 119.151 84.4642 119.189 84.548C119.226 84.6318 119.234 84.7263 119.208 84.8148C119.183 84.9031 119.128 84.98 119.052 85.0319L114.434 87.1899C105.377 91.7733 97.3281 98.1073 90.7566 105.823C85.4455 112.099 81.2049 119.202 78.2045 126.847C78.1748 126.918 78.1256 126.98 78.0623 127.024C77.999 127.069 77.9243 127.095 77.8466 127.099L77.8152 127.097ZM69.5267 108.15L77.7927 125.777C83.5642 111.524 93.562 99.363 106.453 90.9159L69.5267 108.15Z" fill="#3D3DFF"/>
<path d="M127.71 103.43L121.827 90.9296L115.16 109.284L127.71 103.43Z" fill="white"/>
<path d="M115.144 109.676C115.055 109.671 114.968 109.64 114.896 109.587C114.837 109.535 114.795 109.466 114.775 109.389C114.756 109.313 114.761 109.232 114.788 109.159L121.455 90.8037C121.482 90.7293 121.53 90.6642 121.594 90.6168C121.658 90.5693 121.734 90.5413 121.813 90.5361C121.891 90.5327 121.969 90.5535 122.035 90.5955C122.101 90.6378 122.152 90.6993 122.181 90.7718L128.081 103.273C128.121 103.369 128.124 103.477 128.088 103.574C128.051 103.672 127.978 103.752 127.885 103.798L115.335 109.653C115.274 109.676 115.209 109.684 115.144 109.676ZM121.879 91.9523L115.856 108.529L127.198 103.251L121.879 91.9523Z" fill="#3D3DFF"/>
<path d="M77.8311 126.705L43.1836 135.258L46.1176 141.508L64.5668 148.155L77.8311 126.705Z" fill="white"/>
<path d="M64.5506 148.546L64.4089 148.54L45.993 141.848C45.8926 141.808 45.8115 141.732 45.7657 141.634L42.8926 135.434C42.8674 135.383 42.8553 135.325 42.8577 135.268C42.8602 135.21 42.877 135.155 42.9067 135.105C42.9322 135.053 42.9688 135.008 43.014 134.972C43.0593 134.936 43.1117 134.91 43.1681 134.896L77.8154 126.343C77.8933 126.321 77.9761 126.324 78.0525 126.351C78.1287 126.378 78.1952 126.427 78.2422 126.493C78.2894 126.558 78.3151 126.636 78.3161 126.717C78.3169 126.797 78.2929 126.876 78.2471 126.943L64.9685 148.36C64.9289 148.432 64.8666 148.49 64.7909 148.523C64.7155 148.557 64.6309 148.565 64.5506 148.546ZM46.4153 141.191L64.4457 147.678L77.032 127.331L43.7428 135.471L46.4153 141.191Z" fill="#3D3DFF"/>
<path d="M50.2435 101.468L37.6934 107.322L41.0192 98.1368L50.2435 101.468Z" fill="white"/>
<path d="M37.6758 107.714C37.5827 107.712 37.494 107.675 37.428 107.61C37.3688 107.557 37.327 107.488 37.3077 107.412C37.2885 107.335 37.2928 107.255 37.3202 107.181L40.6453 98.0109C40.6618 97.9605 40.6884 97.9137 40.7236 97.8737C40.7588 97.8339 40.8018 97.8015 40.85 97.7785C40.8983 97.7555 40.9504 97.7426 41.0038 97.7404C41.0573 97.7384 41.1104 97.7471 41.1604 97.7661L50.3688 101.096C50.4425 101.12 50.5073 101.166 50.5553 101.227C50.6032 101.287 50.6319 101.361 50.6381 101.438C50.6386 101.517 50.6166 101.595 50.5748 101.663C50.5328 101.73 50.4727 101.785 50.401 101.82L37.851 107.675C37.7977 107.705 37.7368 107.718 37.6758 107.714ZM41.218 98.6323L38.3557 106.566L49.1848 101.501L41.218 98.6323Z" fill="#3D3DFF"/>
</g>
<defs>
<filter id="filter0_d" x="0" y="0" width="182.973" height="172" filterUnits="userSpaceOnUse" color-interpolation-filters="sRGB">
<feFlood flood-opacity="0" result="BackgroundImageFix"/>
<feColorMatrix in="SourceAlpha" type="matrix" values="0 0 0 0 0 0 0 0 0 0 0 0 0 0 0 0 0 0 127 0"/>
<feOffset/>
<feGaussianBlur stdDeviation="8"/>
<feColorMatrix type="matrix" values="0 0 0 0 0.156678 0 0 0 0 0 0 0 0 0 1 0 0 0 0.7 0"/>
<feBlend mode="normal" in2="BackgroundImageFix" result="effect1_dropShadow"/>
<feBlend mode="normal" in="SourceGraphic" in2="effect1_dropShadow" result="shape"/>
</filter>
</defs>
</svg>
