<svg width="223" height="194" viewBox="0 0 223 194" fill="none" xmlns="http://www.w3.org/2000/svg">
<g filter="url(#filter0_d)">
<path d="M164.703 170.525H164.559L35.9653 169.676C30.6611 169.637 25.5868 167.491 21.8473 163.705C18.1079 159.92 16.0062 154.8 16 149.462L16.7475 36.0921C16.7793 30.7522 18.9096 25.642 22.673 21.8774C26.4364 18.1129 31.5271 15.9999 36.8334 16L36.9781 16L165.499 16.8493C170.826 16.8942 175.919 19.0621 179.661 22.8781C183.403 26.694 185.49 31.8471 185.464 37.2084L184.789 150.433C184.751 155.771 182.618 160.877 178.857 164.64C175.095 168.404 170.008 170.518 164.703 170.525ZM40.1127 145.434L160.676 146.235L161.376 41.0909L40.8361 40.2658L40.1127 145.434Z" fill="white"/>
<path d="M28.6842 52.3994L28.0573 149.462C28.0509 150.524 28.2523 151.576 28.65 152.559C29.0477 153.541 29.6338 154.436 30.3749 155.191C31.1161 155.945 31.9977 156.546 32.9695 156.958C33.9412 157.37 34.9841 157.585 36.0386 157.592L164.632 158.441C165.691 158.447 166.742 158.243 167.723 157.84C168.704 157.437 169.597 156.844 170.349 156.093C171.102 155.342 171.7 154.449 172.109 153.466C172.518 152.482 172.731 151.427 172.734 150.36L173.36 53.2973L28.6842 52.3994Z" fill="#FF7698"/>
<path d="M164.704 158.998L36.0382 158.149C33.7572 158.136 31.5739 157.215 29.9654 155.587C28.3569 153.959 27.4541 151.757 27.4541 149.462L28.0569 52.3982C28.0569 52.2373 28.1204 52.083 28.2335 51.9694C28.3465 51.8554 28.4998 51.7915 28.6597 51.7915L173.336 52.7381C173.496 52.7381 173.649 52.8019 173.762 52.9156C173.875 53.0292 173.939 53.1838 173.939 53.3444L173.312 150.408C173.28 152.689 172.361 154.866 170.751 156.473C169.142 158.079 166.971 158.985 164.704 158.998ZM29.2866 52.9562L28.6597 149.462C28.6534 150.443 28.8392 151.416 29.2065 152.325C29.5739 153.235 30.1156 154.062 30.8008 154.76C31.486 155.459 32.3011 156.015 33.1998 156.396C34.0984 156.778 35.0629 156.978 36.0382 156.984L164.656 157.833C166.617 157.833 168.499 157.052 169.89 155.662C171.281 154.27 172.069 152.382 172.082 150.408L172.733 53.9027L29.2866 52.9562Z" fill="#3D3DFF"/>
<path d="M173.481 37.1366C173.49 36.0734 173.291 35.0187 172.895 34.0331C172.498 33.0475 171.913 32.1503 171.171 31.3928C170.43 30.6354 169.547 30.0327 168.574 29.6192C167.601 29.2057 166.556 28.9896 165.499 28.9832L36.8819 28.1339C35.8275 28.1275 34.7821 28.3302 33.8055 28.7304C32.8289 29.1306 31.9401 29.7205 31.19 30.4663C30.44 31.2122 29.8432 32.0994 29.4338 33.0773C29.0245 34.0553 28.8105 35.1048 28.8042 36.1659V52.3511L173.481 53.2977V37.1366Z" fill="#F2F2F2"/>
<path d="M173.36 53.9032L28.684 52.9567C28.5281 52.9634 28.3756 52.909 28.2587 52.8049C28.1417 52.7008 28.0695 52.5554 28.0571 52.3987V36.2133C28.057 35.0601 28.285 33.9185 28.7278 32.8549C29.1706 31.7913 29.8195 30.8271 30.6364 30.0185C31.4534 29.2099 32.4222 28.5731 33.4862 28.1451C34.5503 27.7172 35.6884 27.5068 36.8342 27.5261L165.5 28.3754C167.789 28.401 169.976 29.336 171.584 30.9768C173.192 32.6175 174.09 34.8311 174.084 37.1354V53.2965C174.086 53.3876 174.067 53.4776 174.029 53.5605C173.992 53.6431 173.937 53.7165 173.867 53.7747C173.797 53.833 173.716 53.875 173.628 53.8969C173.54 53.9191 173.449 53.9212 173.36 53.9032ZM29.2869 51.7433L172.757 52.6898V37.1111C172.764 35.1515 172.009 33.267 170.653 31.861C169.296 30.4551 167.446 29.6394 165.5 29.5887L36.8824 28.7394C35.9071 28.733 34.9401 28.92 34.0366 29.2897C33.1331 29.6594 32.3108 30.2046 31.6167 30.8941C30.9226 31.5836 30.3702 32.404 29.9912 33.3083C29.6121 34.2126 29.4138 35.1833 29.4074 36.1648L29.2869 51.7433Z" fill="#3D3DFF"/>
<path d="M40.8354 44.3431C43.0594 44.3431 44.8622 42.5288 44.8622 40.2907C44.8622 38.0526 43.0594 36.2383 40.8354 36.2383C38.6114 36.2383 36.8086 38.0526 36.8086 40.2907C36.8086 42.5288 38.6114 44.3431 40.8354 44.3431Z" fill="#FF6777"/>
<path d="M40.8343 44.9485C39.6144 44.9185 38.4512 44.4242 37.579 43.5653C36.7049 42.6917 36.2106 41.5049 36.2046 40.2652C36.2173 39.0357 36.7098 37.8605 37.576 36.9934C38.4422 36.1263 39.6125 35.6367 40.8343 35.6304C42.0538 35.6368 43.2215 36.1271 44.0839 36.9949C44.9462 37.8627 45.4335 39.0379 45.4398 40.2652C45.4449 40.8803 45.3257 41.49 45.0895 42.0573C44.8532 42.6246 44.5048 43.1377 44.0654 43.5653C43.2091 44.4332 42.0495 44.9297 40.8343 44.9485ZM40.8343 36.8437C39.9321 36.8451 39.0665 37.2023 38.423 37.8386C37.7869 38.484 37.4299 39.3562 37.4299 40.2652C37.4299 41.1742 37.7869 42.0464 38.423 42.6917C38.7389 43.0116 39.1146 43.2655 39.5285 43.4387C39.9423 43.6119 40.3861 43.7011 40.8343 43.7011C41.2825 43.7011 41.7262 43.6119 42.14 43.4387C42.5539 43.2655 42.9296 43.0116 43.2455 42.6917C43.5662 42.3754 43.821 41.9978 43.9949 41.5812C44.1688 41.1645 44.2583 40.7171 44.2583 40.2652C44.2699 39.8138 44.1881 39.3649 44.0179 38.9471C43.8476 38.5293 43.5928 38.1518 43.2696 37.8386C42.634 37.1845 41.7674 36.8095 40.8584 36.7951L40.8343 36.8437Z" fill="#3D3DFF"/>
<path d="M56.8956 44.4388C59.1198 44.4388 60.9224 42.6245 60.9224 40.3864C60.9224 38.1483 59.1198 36.334 56.8956 36.334C54.6717 36.334 52.8687 38.1483 52.8687 40.3864C52.8687 42.6245 54.6717 44.4388 56.8956 44.4388Z" fill="#00FFAC"/>
<path d="M56.9923 45.1196C56.3607 45.1337 55.733 45.0168 55.1483 44.7762C54.5636 44.5357 54.0341 44.1767 53.5931 43.7215C53.1521 43.2663 52.809 42.7247 52.5848 42.1303C52.3606 41.5359 52.2603 40.9015 52.2904 40.2665C52.3218 39.0414 52.8344 37.8788 53.7156 37.033C54.5968 36.1871 55.775 35.727 56.9923 35.753C58.2266 35.753 59.4103 36.2464 60.2831 37.1247C61.1558 38.003 61.6462 39.1942 61.6462 40.4363C61.6462 41.6784 61.1558 42.8696 60.2831 43.7479C59.4103 44.6262 58.2266 45.1196 56.9923 45.1196ZM56.9923 36.9663C56.1082 36.9457 55.2503 37.343 54.5986 37.9446C53.9469 38.5462 53.5518 39.3782 53.496 40.2665C53.4724 40.7371 53.5462 41.2075 53.7128 41.6479C53.8794 42.0882 54.1354 42.4889 54.4641 42.8243C54.7928 43.1598 55.1875 43.4228 55.6228 43.5965C56.0581 43.7702 56.5245 43.851 56.9923 43.8335C57.8961 43.8336 58.7635 43.4739 59.405 42.8329C60.0465 42.1919 60.4098 41.3217 60.4162 40.412C60.4162 39.9595 60.3279 39.5115 60.1556 39.0934C59.9837 38.6754 59.7313 38.2955 59.4135 37.9755C59.0954 37.6556 58.718 37.4018 58.3025 37.2286C57.8873 37.0554 57.4421 36.9663 56.9923 36.9663Z" fill="#3D3DFF"/>
<path d="M72.9776 44.5603C75.2015 44.5603 77.0045 42.746 77.0045 40.508C77.0045 38.2699 75.2015 36.4556 72.9776 36.4556C70.7537 36.4556 68.9507 38.2699 68.9507 40.508C68.9507 42.746 70.7537 44.5603 72.9776 44.5603Z" fill="#00CDFF"/>
<path d="M72.9773 45.1194C72.3655 45.1145 71.7603 44.9876 71.1976 44.7461C70.6348 44.5045 70.125 44.153 69.6978 43.712C69.2724 43.2815 68.9359 42.7702 68.7082 42.2078C68.4809 41.6455 68.3665 41.0432 68.3718 40.4361C68.3781 39.2046 68.8689 38.0258 69.7363 37.1573C70.6037 36.2888 71.7776 35.8013 73.0013 35.8013C74.2292 35.8013 75.4067 36.2922 76.2752 37.1659C77.1433 38.0396 77.6309 39.2247 77.6309 40.4603C77.6309 41.696 77.1433 42.881 76.2752 43.7548C75.4067 44.6285 74.2292 45.1194 73.0013 45.1194H72.9773ZM72.9773 37.0146C72.0735 37.0145 71.2061 37.3742 70.5646 38.0152C69.9231 38.6562 69.5598 39.5264 69.5534 40.4361C69.5488 40.8865 69.6339 41.3333 69.8037 41.75C69.9736 42.1668 70.2246 42.5451 70.542 42.8626C71.1806 43.5124 72.0453 43.8866 72.9533 43.9061C73.8571 43.9061 74.7246 43.5464 75.3657 42.9054C76.0072 42.2645 76.3708 41.3942 76.3772 40.4846C76.3684 39.5782 76.0143 38.7098 75.3886 38.058C75.0741 37.7353 74.6991 37.4789 74.285 37.3039C73.8709 37.1289 73.4264 37.0388 72.9773 37.0389V37.0146Z" fill="#3D3DFF"/>
<path d="M165.5 45.774C165.337 45.7666 165.182 45.6973 165.067 45.5799L156.965 37.4508C156.853 37.335 156.791 37.1792 156.794 37.0176C156.796 36.8561 156.862 36.702 156.977 36.5894C157.092 36.4768 157.246 36.4148 157.407 36.4171C157.568 36.4193 157.721 36.4857 157.833 36.6015L165.814 44.7306C165.924 44.844 165.986 44.9964 165.986 45.1552C165.986 45.314 165.924 45.4665 165.814 45.5799C165.73 45.6736 165.622 45.741 165.5 45.774Z" fill="#3D3DFF"/>
<path d="M157.349 45.7251C157.267 45.724 157.187 45.7062 157.112 45.6728C157.038 45.6394 156.97 45.5912 156.915 45.5309C156.857 45.4765 156.811 45.4107 156.78 45.3377C156.749 45.2646 156.732 45.1859 156.732 45.1063C156.732 45.0267 156.749 44.9479 156.78 44.8749C156.811 44.8019 156.857 44.7361 156.915 44.6816L165.017 36.6497C165.133 36.562 165.277 36.5195 165.421 36.5298C165.566 36.5402 165.702 36.6028 165.805 36.706C165.908 36.8093 165.97 36.9463 165.98 37.092C165.99 37.2376 165.948 37.3821 165.861 37.499L157.759 45.5309C157.652 45.6468 157.506 45.7165 157.349 45.7251Z" fill="#3D3DFF"/>
<path d="M149.369 37.5725L85.06 37.1357C84.9001 37.1357 84.7469 37.0718 84.6336 36.958C84.5206 36.8442 84.457 36.6899 84.457 36.529C84.457 36.3681 84.5206 36.2138 84.6336 36.1001C84.7469 35.9863 84.9001 35.9224 85.06 35.9224L149.369 36.3592C149.529 36.3592 149.682 36.4231 149.795 36.5369C149.908 36.6506 149.971 36.8049 149.971 36.9658C149.966 37.1248 149.9 37.2756 149.788 37.3881C149.676 37.5006 149.526 37.5665 149.369 37.5725Z" fill="#3D3DFF"/>
<path d="M149.296 45.6527L85.0117 45.2402C84.8518 45.2402 84.6985 45.1762 84.5852 45.0625C84.4722 44.9487 84.4087 44.7944 84.4087 44.6335C84.4087 44.4726 84.4722 44.3183 84.5852 44.2046C84.6985 44.0908 84.8518 44.0269 85.0117 44.0269L149.32 44.4394C149.476 44.4456 149.623 44.5123 149.731 44.6254C149.839 44.7385 149.899 44.8892 149.899 45.046C149.899 45.2069 149.835 45.3612 149.722 45.475C149.609 45.5887 149.456 45.6527 149.296 45.6527Z" fill="#3D3DFF"/>
<path d="M200.903 149.872L187.541 152.426L195.675 163.343L183.373 157.521L183.564 171.158L177.014 159.203L169.178 170.335L170.892 156.817L158.019 161.207L167.331 151.28L154.339 147.236L167.701 144.694L159.567 133.777L171.869 139.588L171.678 125.962L178.216 137.917L186.064 126.773L184.35 140.292L197.223 135.913L187.91 145.84L200.903 149.872Z" fill="white"/>
<path d="M183.564 177.11C182.496 177.112 181.448 176.826 180.528 176.283C179.608 175.739 178.851 174.958 178.336 174.02L176.383 170.44L174.002 173.769C173.226 174.828 172.123 175.601 170.863 175.968C169.604 176.334 168.26 176.274 167.038 175.797C165.816 175.32 164.786 174.452 164.108 173.328C163.429 172.204 163.139 170.887 163.283 169.581L163.796 165.537L159.937 166.849C158.679 167.277 157.314 167.272 156.06 166.833C154.805 166.394 153.734 165.548 153.015 164.428C152.296 163.309 151.971 161.981 152.093 160.655C152.214 159.33 152.775 158.083 153.685 157.113L156.471 154.142L152.589 152.949C151.319 152.555 150.216 151.747 149.458 150.653C148.699 149.559 148.328 148.242 148.404 146.912C148.479 145.581 148.996 144.315 149.874 143.314C150.751 142.313 151.938 141.635 153.244 141.388L157.245 140.624L154.864 137.355C154.068 136.294 153.647 134.997 153.669 133.67C153.691 132.343 154.154 131.062 154.986 130.028C155.816 128.994 156.968 128.267 158.257 127.963C159.546 127.658 160.9 127.793 162.104 128.346L165.784 130.076V126.008C165.8 124.701 166.244 123.435 167.047 122.405C167.851 121.375 168.97 120.638 170.232 120.307C171.494 119.977 172.83 120.071 174.034 120.574C175.238 121.078 176.243 121.964 176.895 123.097L178.86 126.676L181.242 123.347C182.019 122.287 183.123 121.513 184.383 121.146C185.644 120.78 186.99 120.841 188.213 121.32C189.435 121.798 190.465 122.669 191.143 123.795C191.821 124.921 192.108 126.24 191.96 127.547L191.46 131.568L195.307 130.255C196.565 129.827 197.93 129.833 199.184 130.272C200.438 130.711 201.51 131.557 202.229 132.677C202.948 133.796 203.272 135.124 203.151 136.45C203.029 137.775 202.469 139.022 201.559 139.991L198.772 142.962L202.666 144.156C203.972 144.526 205.113 145.332 205.9 146.44C206.686 147.549 207.071 148.893 206.99 150.25C206.909 151.608 206.368 152.897 205.456 153.904C204.544 154.912 203.316 155.576 201.976 155.789L197.974 156.54L200.356 159.81C201.155 160.876 201.574 162.18 201.547 163.513C201.52 164.846 201.048 166.132 200.206 167.164C199.365 168.197 198.202 168.918 196.904 169.211C195.605 169.504 194.247 169.353 193.044 168.782L189.364 167.04V171.121C189.373 171.91 189.227 172.694 188.931 173.426C188.637 174.158 188.199 174.824 187.646 175.385C187.092 175.947 186.432 176.393 185.705 176.697C184.978 177.001 184.198 177.158 183.41 177.158L183.564 177.11ZM177.014 153.247H177.36C177.895 153.274 178.424 153.374 178.932 153.546C179.284 153.151 179.684 152.803 180.123 152.508C180.578 152.216 181.071 151.987 181.588 151.828C181.644 151.288 181.772 150.758 181.968 150.252C182.165 149.752 182.425 149.278 182.743 148.845C182.471 148.379 182.266 147.877 182.135 147.353C181.997 146.832 181.929 146.294 181.933 145.754C181.438 145.539 180.973 145.258 180.551 144.919C180.135 144.576 179.77 144.174 179.468 143.726C178.941 143.847 178.399 143.892 177.86 143.857C177.324 143.828 176.795 143.724 176.288 143.547C175.938 143.947 175.538 144.3 175.097 144.597C174.641 144.888 174.149 145.117 173.632 145.277C173.579 145.812 173.455 146.338 173.263 146.84C173.066 147.343 172.802 147.817 172.477 148.248C172.749 148.715 172.957 149.217 173.096 149.74C173.237 150.261 173.301 150.799 173.287 151.338C173.785 151.553 174.251 151.838 174.668 152.185C175.092 152.538 175.465 152.947 175.776 153.402C176.167 153.31 176.565 153.253 176.967 153.235L177.014 153.247Z" fill="white"/>
<path d="M200.903 149.872L187.541 152.426L195.675 163.343L183.373 157.521L183.564 171.158L177.014 159.203L169.178 170.335L170.892 156.817L158.019 161.207L167.331 151.28L154.339 147.236L167.701 144.694L159.567 133.777L171.869 139.588L171.678 125.962L178.216 137.917L186.064 126.773L184.35 140.292L197.223 135.913L187.91 145.84L200.903 149.872Z" fill="#FFFF58"/>
<path d="M183.565 171.444C183.511 171.448 183.457 171.434 183.411 171.407C183.364 171.379 183.327 171.338 183.303 171.289L176.968 159.763L169.394 170.502C169.353 170.556 169.296 170.595 169.232 170.612C169.167 170.629 169.098 170.624 169.036 170.597C168.976 170.574 168.925 170.53 168.893 170.473C168.86 170.417 168.848 170.351 168.858 170.287L170.537 157.258L158.116 161.482C158.053 161.505 157.984 161.506 157.922 161.485C157.858 161.463 157.805 161.419 157.77 161.362C157.728 161.312 157.704 161.249 157.704 161.183C157.704 161.118 157.728 161.054 157.77 161.004L166.762 151.459L154.257 147.522C154.195 147.504 154.141 147.466 154.102 147.414C154.064 147.363 154.043 147.3 154.043 147.235C154.043 147.171 154.064 147.108 154.102 147.057C154.141 147.005 154.195 146.967 154.257 146.949L167.155 144.491L159.33 133.956C159.291 133.902 159.27 133.837 159.27 133.771C159.27 133.704 159.291 133.639 159.33 133.586C159.372 133.534 159.43 133.498 159.495 133.482C159.559 133.467 159.628 133.474 159.688 133.503L171.597 139.11L171.382 125.962C171.381 125.895 171.403 125.83 171.444 125.778C171.485 125.725 171.543 125.689 171.609 125.675C171.672 125.659 171.739 125.664 171.8 125.69C171.86 125.716 171.91 125.761 171.942 125.819L178.254 137.356L185.828 126.618C185.866 126.565 185.92 126.525 185.982 126.506C186.045 126.486 186.112 126.488 186.173 126.511C186.237 126.534 186.291 126.579 186.325 126.638C186.36 126.697 186.374 126.765 186.364 126.833L184.708 139.862L197.13 135.626C197.192 135.605 197.26 135.605 197.322 135.626C197.385 135.648 197.439 135.69 197.475 135.745C197.515 135.799 197.536 135.864 197.536 135.93C197.536 135.997 197.515 136.062 197.475 136.115L188.495 145.661L200.988 149.586C201.052 149.609 201.107 149.651 201.145 149.706C201.184 149.762 201.204 149.828 201.202 149.896C201.198 149.964 201.171 150.027 201.125 150.077C201.08 150.127 201.019 150.16 200.952 150.171L188.067 152.629L195.915 163.164C195.958 163.214 195.981 163.277 195.981 163.343C195.981 163.409 195.958 163.472 195.915 163.522C195.877 163.575 195.821 163.612 195.757 163.627C195.694 163.643 195.627 163.635 195.57 163.605L183.66 157.998L183.839 171.122C183.839 171.19 183.817 171.256 183.776 171.31C183.735 171.363 183.678 171.402 183.613 171.421L183.565 171.444ZM176.968 158.904C177.018 158.906 177.066 158.921 177.109 158.949C177.151 158.976 177.184 159.015 177.206 159.06L183.16 169.953L182.994 157.532C182.992 157.48 183.005 157.428 183.03 157.382C183.055 157.336 183.092 157.297 183.137 157.27C183.18 157.246 183.229 157.233 183.279 157.233C183.329 157.233 183.378 157.246 183.422 157.27L194.641 162.567L187.221 152.617C187.195 152.574 187.181 152.524 187.181 152.473C187.181 152.423 187.195 152.373 187.221 152.33C187.239 152.283 187.268 152.242 187.305 152.209C187.342 152.175 187.387 152.151 187.436 152.139L199.678 149.825L187.769 146.15C187.719 146.136 187.674 146.109 187.638 146.07C187.602 146.033 187.578 145.986 187.567 145.935C187.554 145.887 187.554 145.836 187.566 145.788C187.579 145.74 187.603 145.696 187.638 145.661L196.129 136.604L184.387 140.602C184.343 140.625 184.294 140.637 184.244 140.637C184.194 140.637 184.145 140.625 184.101 140.602C184.072 140.552 184.058 140.496 184.06 140.439C184.062 140.382 184.081 140.326 184.113 140.28L185.626 127.93L178.48 138.084C178.449 138.125 178.41 138.157 178.364 138.18C178.319 138.203 178.269 138.215 178.218 138.215C178.168 138.209 178.12 138.192 178.076 138.165C178.033 138.138 177.996 138.102 177.968 138.06L171.99 127.155L172.204 139.587C172.203 139.638 172.19 139.687 172.165 139.731C172.14 139.775 172.104 139.812 172.061 139.838C172.017 139.861 171.968 139.873 171.918 139.873C171.869 139.873 171.819 139.861 171.775 139.838L160.521 134.553L167.94 144.515C167.963 144.56 167.975 144.609 167.975 144.658C167.975 144.708 167.963 144.757 167.94 144.802C167.923 144.849 167.893 144.892 167.853 144.923C167.813 144.955 167.765 144.975 167.714 144.981L155.531 147.307L167.441 151.018C167.489 151.031 167.533 151.056 167.569 151.092C167.604 151.128 167.63 151.172 167.643 151.221C167.656 151.271 167.656 151.323 167.643 151.373C167.631 151.423 167.606 151.469 167.572 151.507L159.104 160.563L170.858 156.554C170.907 156.54 170.959 156.538 171.009 156.548C171.059 156.558 171.105 156.581 171.144 156.614C171.183 156.644 171.214 156.684 171.232 156.731C171.251 156.777 171.258 156.827 171.251 156.876L169.62 169.19L176.765 159.024C176.814 158.959 176.887 158.916 176.968 158.904Z" fill="#0000FF"/>
<path d="M100.694 99.0059C99.4641 99.0059 98.262 99.3704 97.2395 100.053C96.2171 100.736 95.4203 101.707 94.95 102.843C94.4794 103.978 94.3562 105.228 94.5959 106.434C94.836 107.639 95.428 108.747 96.2976 109.616C97.1672 110.485 98.2747 111.077 99.4807 111.317C100.687 111.556 101.937 111.434 103.073 110.963C104.209 110.493 105.18 109.696 105.863 108.674C106.546 107.652 106.911 106.45 106.911 105.221C106.911 103.573 106.256 101.992 105.09 100.826C103.924 99.6609 102.343 99.0059 100.694 99.0059Z" fill="white"/>
<path d="M123.041 94.6269C122.247 94.3541 121.424 94.0975 120.569 93.8575C120.718 93.2646 120.855 92.6787 120.975 92.0929C122.688 83.8343 121.508 77.4109 117.904 75.3286C114.486 73.3593 108.633 75.3816 102.624 80.6226C101.992 81.1732 101.356 81.759 100.724 82.3873C100.283 81.9602 99.8416 81.5473 99.4039 81.1591C93.0878 75.5228 86.9235 73.3346 83.3259 75.4169C79.9013 77.4109 78.7398 83.4743 80.2544 91.2882C80.4168 92.114 80.6074 92.9575 80.8263 93.8187C79.8589 94.0869 78.9234 94.3763 78.0266 94.6869C70.5843 97.2845 66.1323 101.223 66.1323 105.222C66.1323 109.309 71.075 113.639 78.6939 116.233C79.3682 116.466 80.0708 116.682 80.8122 116.886C80.5792 117.807 80.3744 118.714 80.2085 119.597C78.7362 127.361 79.926 133.178 83.3859 135.175C84.3589 135.707 85.4548 135.972 86.5634 135.945C90.0939 135.945 94.6836 133.763 99.2273 129.804C99.764 129.333 100.304 128.833 100.848 128.304C101.529 128.964 102.211 129.592 102.888 130.178C107.298 133.968 111.521 135.987 114.822 135.987C115.923 136.01 117.012 135.739 117.974 135.203C121.505 133.153 122.793 126.733 121.229 118.813C121.095 118.132 120.933 117.437 120.753 116.724C121.272 116.576 121.78 116.42 122.271 116.258C130.292 113.604 135.274 109.369 135.274 105.211C135.249 101.276 130.571 97.2174 123.041 94.6269ZM104.262 82.472C108.689 78.6038 112.439 77.058 114.853 77.058C115.486 77.0368 116.114 77.1805 116.675 77.4745C118.815 78.7097 120.23 83.559 118.567 91.6164C118.458 92.1493 118.331 92.6928 118.193 93.2469C115.021 92.5157 111.802 92.0036 108.558 91.7152C106.702 89.0439 104.663 86.5049 102.454 84.1166C103.051 83.5413 103.651 82.9908 104.262 82.472ZM110.617 111.013C109.497 112.952 108.361 114.784 107.21 116.509C105.092 116.664 102.913 116.745 100.685 116.745C98.4577 116.745 96.3111 116.674 94.2493 116.54C93.0348 114.776 91.8592 112.926 90.7612 111.028C89.6632 109.129 88.657 107.209 87.739 105.292C88.6605 103.369 89.6702 101.442 90.7576 99.5538C91.8556 97.6551 93.0136 95.8198 94.2105 94.0728C96.3288 93.9069 98.5106 93.8187 100.692 93.8187C102.874 93.8187 105.063 93.9069 107.178 94.0693C108.357 95.8022 109.512 97.6303 110.613 99.5397C111.715 101.449 112.76 103.383 113.678 105.243C112.756 107.152 111.736 109.086 110.617 111.013ZM115.019 108.116C116.039 110.351 116.927 112.644 117.678 114.984C115.268 115.535 112.827 115.946 110.37 116.216C111.182 114.945 111.984 113.623 112.777 112.249C113.571 110.875 114.318 109.497 115.019 108.116ZM100.816 124.771C99.1444 122.976 97.5719 121.091 96.1064 119.124C97.5962 119.19 99.126 119.224 100.696 119.226C102.292 119.226 103.873 119.184 105.42 119.106C103.995 121.081 102.458 122.973 100.816 124.771ZM91.093 116.272C88.6626 116.029 86.2485 115.645 83.8625 115.122C84.5905 112.772 85.4449 110.465 86.4222 108.208C87.1283 109.563 87.8344 110.918 88.6287 112.263C89.4231 113.608 90.2457 114.973 91.093 116.272ZM88.6217 98.3256C87.845 99.6703 87.1071 101.029 86.4186 102.384C85.4569 100.17 84.6191 97.9046 83.9084 95.5975C86.2591 95.0691 88.6362 94.665 91.0295 94.3869C90.2009 95.6645 89.3973 96.9774 88.6181 98.3256H88.6217ZM100.731 85.8813C102.372 87.6579 103.912 89.5242 105.346 91.4717C103.813 91.3895 102.265 91.3482 100.7 91.3482C99.1426 91.3482 97.5998 91.387 96.0816 91.4682C97.5263 89.5207 99.0787 87.6555 100.731 85.8813ZM112.753 98.3044C111.976 96.9598 111.171 95.6504 110.352 94.3834C112.762 94.6643 115.154 95.0769 117.519 95.6186C116.806 97.9187 115.964 100.176 114.995 102.381C114.296 101.04 113.548 99.6809 112.753 98.3044ZM82.694 90.8223C81.2147 83.2661 82.5669 78.7203 84.5616 77.5662C86.6799 76.331 91.6226 77.5274 97.7622 82.9872C98.1717 83.3402 98.5812 83.7355 98.9908 84.1307C96.7729 86.5105 94.7217 89.04 92.8512 91.7011C89.6148 91.9831 86.4017 92.4867 83.2341 93.2081C83.0293 92.3928 82.8458 91.5952 82.694 90.8223ZM79.4918 113.918C72.0106 111.352 68.6037 107.611 68.6037 105.222C68.6037 102.469 72.7238 99.1585 78.8422 97.0198C79.6824 96.7268 80.5686 96.4551 81.49 96.201C82.4518 99.3082 83.6257 102.346 85.0029 105.292C83.614 108.283 82.4341 111.365 81.4724 114.518C80.7804 114.324 80.1202 114.116 79.4918 113.908V113.918ZM84.6075 133.054C82.2103 131.671 81.43 126.458 82.6233 120.08C82.7787 119.251 82.9764 118.39 83.1988 117.514C86.3929 118.215 89.6325 118.687 92.8936 118.926C94.7807 121.609 96.8499 124.16 99.0861 126.56C98.5812 127.054 98.0764 127.524 97.5751 127.972C91.6226 133.174 86.6799 134.233 84.6075 133.043V133.054ZM118.779 119.314C120.315 127.079 118.779 131.886 116.714 133.079C114.317 134.466 109.399 132.553 104.477 128.318C103.838 127.767 103.192 127.171 102.546 126.553C104.742 124.144 106.764 121.583 108.597 118.887C111.876 118.616 115.131 118.11 118.338 117.373C118.504 118.023 118.656 118.672 118.779 119.304V119.314ZM121.47 113.936C121.014 114.088 120.537 114.229 120.057 114.37C119.067 111.245 117.853 108.195 116.424 105.243C117.795 102.328 118.963 99.3223 119.92 96.2469C120.718 96.4763 121.494 96.7162 122.239 96.9739C129.523 99.4797 132.781 102.924 132.781 105.232C132.778 107.689 129.283 111.338 121.47 113.925V113.936Z" fill="white"/>
</g>
<defs>
<filter id="filter0_d" x="0" y="0" width="223" height="193.158" filterUnits="userSpaceOnUse" color-interpolation-filters="sRGB">
<feFlood flood-opacity="0" result="BackgroundImageFix"/>
<feColorMatrix in="SourceAlpha" type="matrix" values="0 0 0 0 0 0 0 0 0 0 0 0 0 0 0 0 0 0 127 0"/>
<feOffset/>
<feGaussianBlur stdDeviation="8"/>
<feColorMatrix type="matrix" values="0 0 0 0 0.352941 0 0 0 0 0.470588 0 0 0 0 1 0 0 0 1 0"/>
<feBlend mode="normal" in2="BackgroundImageFix" result="effect1_dropShadow"/>
<feBlend mode="normal" in="SourceGraphic" in2="effect1_dropShadow" result="shape"/>
</filter>
</defs>
</svg>
