<svg width="177" height="182" viewBox="0 0 177 182" fill="none" xmlns="http://www.w3.org/2000/svg">
<g filter="url(#filter0_d)">
<path d="M150.342 116.058L112.099 28.9609C111.562 27.734 110.556 26.7686 109.302 26.2771C108.048 25.7855 106.648 25.808 105.411 26.3397L29.0647 59.2839C27.8311 59.8201 26.8612 60.8182 26.3662 62.0605C25.8711 63.3027 25.8911 64.6888 26.4217 65.9165L64.625 153.013C65.1658 154.237 66.172 155.199 67.4245 155.689C68.6771 156.18 70.0746 156.161 71.3125 155.634L147.719 122.71C148.954 122.17 149.923 121.167 150.415 119.921C150.906 118.674 150.88 117.285 150.342 116.058ZM134.004 102.415C134.004 102.316 134.004 102.217 134.004 102.117C134.004 102.018 133.984 102.316 134.004 102.415ZM123.992 79.0228L122.551 75.7263L106.713 39.5849L123.992 79.0228ZM39.8969 64.7646L69.3905 52.0555L39.8969 64.7646C39.6878 64.861 39.4869 64.974 39.2962 65.1022C39.4548 64.9782 39.6223 64.8654 39.7967 64.7646H39.8969ZM45.223 85.4963L45.8838 86.9657L38.0549 69.0937L45.223 85.4963ZM91.1349 123.504L132.121 105.871C132.338 105.79 132.541 105.676 132.722 105.533C132.541 105.676 132.338 105.79 132.121 105.871L91.1349 123.504ZM132.742 105.354C132.883 105.258 133.011 105.145 133.123 105.017C133.011 105.145 132.883 105.258 132.742 105.354ZM133.823 103.905C133.758 104.061 133.685 104.213 133.603 104.361C133.682 104.239 133.756 104.113 133.823 103.984V103.905ZM133.543 104.481C133.448 104.628 133.341 104.767 133.223 104.898C133.337 104.793 133.444 104.68 133.543 104.56V104.481ZM134.004 103.051C134.013 102.925 134.013 102.799 134.004 102.674C134.018 102.825 134.018 102.978 134.004 103.13V103.051ZM133.883 103.686C133.895 103.554 133.895 103.421 133.883 103.289C133.9 103.447 133.9 103.607 133.883 103.766V103.686Z" fill="white"/>
<path d="M69.3097 166C66.363 166 63.4806 165.147 61.0157 163.545C58.5509 161.944 56.6111 159.663 55.4339 156.985L17.2507 69.8878C15.6551 66.2458 15.5835 62.1246 17.0517 58.4302C18.5198 54.7361 21.4075 51.7715 25.0795 50.1888L101.466 17.2445C105.139 15.6601 109.295 15.5857 113.023 17.0377C116.75 18.4897 119.745 21.3495 121.349 24.9891L159.532 112.106C161.128 115.748 161.199 119.869 159.731 123.563C158.263 127.257 155.375 130.222 151.703 131.805L75.2964 164.749C73.4078 165.567 71.3705 165.993 69.3097 166ZM50.4684 95.842L71.8326 144.593L139.209 115.541L138.368 113.555C137.642 114.072 136.864 114.512 136.045 114.866L95.1189 132.619C93.9133 133.139 92.6162 133.419 91.3017 133.442C89.987 133.465 88.6809 133.231 87.4573 132.754C86.2339 132.276 85.1174 131.564 84.1713 130.659C83.2253 129.753 82.4684 128.671 81.9441 127.476C81.4193 126.28 81.1374 124.994 81.1141 123.69C81.0908 122.386 81.3267 121.091 81.8081 119.877C82.2897 118.664 83.0075 117.556 83.9206 116.618C84.8338 115.68 85.9243 114.929 87.1298 114.409L124.772 98.1655C125.703 96.0408 127.353 94.3057 129.438 93.2606L127.295 88.3754C124.902 89.2235 122.274 89.1373 119.942 88.1342C117.611 87.1312 115.752 85.2866 114.741 82.9741L97.4415 43.5562C97.0791 42.7187 96.8301 41.8374 96.7007 40.935L78.6803 48.6993C79.5354 51.0727 79.4484 53.6797 78.4372 55.9917C77.4257 58.304 75.5657 60.1479 73.234 61.1502L49.8677 71.2581L54.4127 81.5245L55.0535 82.9939C56.0865 85.3114 56.1871 87.9329 55.3347 90.3215C54.4822 92.71 52.7413 94.6851 50.4684 95.842Z" fill="white"/>
<path d="M105.471 26.3399L29.0647 59.2841C27.8311 59.8205 26.8612 60.8184 26.3662 62.0606C25.8711 63.3028 25.8911 64.6889 26.4217 65.9166L64.625 153.013C65.1658 154.237 66.172 155.199 67.4245 155.69C68.6771 156.181 70.0746 156.161 71.3125 155.635L147.719 122.71C148.954 122.17 149.923 121.167 150.415 119.921C150.906 118.674 150.88 117.285 150.342 116.058L112.099 28.9611C111.562 27.749 110.566 26.7948 109.326 26.3044C108.086 25.814 106.702 25.8268 105.471 26.3399ZM133.763 101.482C134.125 102.281 134.156 103.189 133.849 104.01C133.541 104.831 132.921 105.499 132.121 105.871L69.6107 132.798C69.2045 132.972 68.7676 133.065 68.3253 133.071C67.8828 133.077 67.4436 132.997 67.0326 132.835C66.6216 132.672 66.2468 132.431 65.9298 132.125C65.6129 131.819 65.3601 131.454 65.1856 131.05L38.0149 69.1733C37.6586 68.3595 37.6418 67.4386 37.9683 66.6125C38.2948 65.7864 38.9377 65.122 39.7567 64.7648L102.187 37.8376C103.008 37.4843 103.937 37.4677 104.77 37.7914C105.603 38.1151 106.272 38.753 106.633 39.5652L133.763 101.482Z" fill="white"/>
<path d="M69.2912 156.568C68.2014 156.571 67.1347 156.256 66.2235 155.663C65.3123 155.07 64.5968 154.225 64.1655 153.232L26.0022 66.1152C25.7153 65.4464 25.5674 64.7272 25.5674 64.0003C25.5674 63.2736 25.7153 62.5544 26.0022 61.8856C26.2665 61.2062 26.6647 60.5857 27.1735 60.0607C27.6823 59.5355 28.2915 59.1163 28.9656 58.8275L105.272 25.9229C105.945 25.6307 106.669 25.4733 107.404 25.46C108.138 25.4467 108.868 25.5777 109.551 25.8453C110.234 26.113 110.857 26.512 111.384 27.0195C111.91 27.527 112.331 28.1329 112.62 28.8023L150.804 115.859C151.086 116.533 151.231 117.255 151.231 117.984C151.231 118.713 151.086 119.435 150.804 120.109C150.557 120.793 150.175 121.421 149.68 121.957C149.185 122.492 148.587 122.924 147.921 123.227L71.5138 156.111C70.8106 156.407 70.0552 156.562 69.2912 156.568ZM107.495 26.4193C106.867 26.4162 106.246 26.5448 105.673 26.7966L29.2659 59.6813C28.1562 60.1612 27.2829 61.0568 26.8365 62.173C26.3902 63.289 26.4069 64.5348 26.8832 65.6386L65.0866 152.835C65.5704 153.935 66.4735 154.801 67.5989 155.244C68.7242 155.687 69.9804 155.67 71.0933 155.198L147.52 122.254C148.623 121.766 149.488 120.868 149.93 119.754C150.372 118.64 150.355 117.398 149.883 116.296L111.699 29.1597C111.344 28.3462 110.757 27.6534 110.01 27.1665C109.263 26.6796 108.388 26.4199 107.495 26.4193ZM68.2901 133.652C67.8031 133.646 67.3215 133.551 66.8686 133.374C66.3993 133.2 65.9698 132.934 65.6054 132.593C65.2411 132.252 64.9489 131.843 64.7462 131.388L37.5953 69.3719C37.3971 68.907 37.295 68.4073 37.295 67.9025C37.295 67.3977 37.3971 66.898 37.5953 66.4331C37.9679 65.4992 38.6833 64.74 39.5976 64.3082L102.088 37.4008C103.035 37.0254 104.089 37.0218 105.038 37.3908C105.987 37.7597 106.758 38.4735 107.194 39.3864L134.225 101.383C134.604 102.326 134.604 103.378 134.225 104.322C134.047 104.786 133.779 105.211 133.435 105.572C133.092 105.933 132.68 106.224 132.223 106.427L69.8118 133.156C69.3333 133.401 68.808 133.543 68.2701 133.573L68.2901 133.652ZM103.53 38.076C103.137 38.0784 102.749 38.1596 102.389 38.3142L40.0181 65.2216C39.3258 65.5304 38.7806 66.0924 38.4963 66.7905C38.3476 67.1358 38.271 67.5073 38.271 67.8827C38.271 68.2581 38.3476 68.6296 38.4963 68.9747L65.6472 130.852C65.9496 131.542 66.5091 132.09 67.2088 132.381C67.9147 132.668 68.7057 132.668 69.4114 132.381L131.822 105.355C132.514 105.046 133.06 104.484 133.344 103.786C133.633 103.086 133.633 102.301 133.344 101.601L106.093 39.8235C105.945 39.4792 105.729 39.1683 105.457 38.9089C105.185 38.6496 104.864 38.4473 104.511 38.3142C104.199 38.1842 103.868 38.1037 103.53 38.076Z" fill="#3D3DFF"/>
<path d="M89.232 60.813C93.9502 61.6246 98.2733 63.9391 101.546 67.406C106.938 72.6578 114.172 75.6329 121.729 75.7066H122.47L106.632 39.5652C106.272 38.7529 105.602 38.1151 104.769 37.7914C103.936 37.4676 103.008 37.4842 102.187 37.8375L72.5332 50.6458C73.2921 51.6795 74.1359 52.6493 75.0561 53.5451C78.9435 57.3175 83.881 59.8488 89.232 60.813Z" fill="#FFD0EE"/>
<path d="M122.47 76.2228H121.709C114.019 76.1546 106.659 73.1208 101.186 67.7634C97.9906 64.3798 93.7752 62.1153 89.1721 61.3097C83.7183 60.3318 78.684 57.7594 74.7156 53.9225C73.758 52.9933 72.8682 51.998 72.0528 50.9438C72.0193 50.8792 72.002 50.8077 72.002 50.7353C72.002 50.6628 72.0193 50.5913 72.0528 50.5268C72.0688 50.4525 72.1027 50.383 72.1516 50.3243C72.2002 50.2655 72.2625 50.2191 72.3331 50.1892L102.087 37.4007C103.033 37.0253 104.088 37.0218 105.036 37.3907C105.985 37.7597 106.756 38.4734 107.192 39.3866L122.93 75.5676C122.965 75.6424 122.982 75.7238 122.982 75.8058C122.982 75.8881 122.965 75.9694 122.93 76.0442C122.875 76.1095 122.803 76.1601 122.723 76.1911C122.642 76.2224 122.556 76.2334 122.47 76.2228ZM89.3323 60.3367C94.1552 61.1632 98.572 63.5348 101.907 67.0882C107.201 72.2342 114.296 75.1513 121.709 75.23L106.091 39.8234C105.944 39.4792 105.727 39.1682 105.456 38.9089C105.184 38.6496 104.862 38.4472 104.509 38.3142C103.804 38.0274 103.013 38.0274 102.307 38.3142L73.3142 50.8644C73.9673 51.68 74.6692 52.4559 75.4164 53.1877C79.2523 56.9175 84.1401 59.4037 89.4324 60.3166L89.3323 60.3367Z" fill="#3D3DFF"/>
<path d="M120.609 100.688C118.607 99.9331 116.845 99.0793 115.023 98.1656C114.588 100.414 113.62 102.526 112.197 104.329C110.775 106.131 108.939 107.571 106.844 108.53C104.748 109.488 102.452 109.936 100.146 109.839C97.8402 109.741 95.5913 109.099 93.5854 107.967C91.5798 106.835 89.8752 105.245 88.6129 103.329C87.3507 101.413 86.5674 99.2255 86.328 96.9489C86.0884 94.6725 86.3998 92.3722 87.2359 90.239C88.072 88.1055 89.409 86.2006 91.1358 84.6821C88.2824 83.2956 85.3066 82.1722 82.2457 81.3263C72.5319 78.917 62.3223 79.3514 52.8524 82.5773C50.2538 83.4005 47.7065 84.3753 45.2236 85.4964L58.0382 114.826C62.3372 114.369 66.6803 114.529 70.9329 115.303C77.9071 116.657 84.4635 119.616 90.0746 123.941L132.122 105.871C132.546 105.68 132.926 105.405 133.24 105.064C133.553 104.723 133.793 104.321 133.944 103.885C129.38 103.389 124.898 102.315 120.609 100.688Z" fill="#00FFAC"/>
<path d="M90.0737 124.517L89.8534 124.338C84.2945 120.059 77.7995 117.134 70.892 115.8C66.6563 114.999 62.3245 114.825 58.0374 115.283H57.6769L44.582 85.3178L45.0225 85.0994C47.5261 83.9559 50.0932 82.9548 52.7114 82.1007C62.262 78.8287 72.5684 78.3939 82.365 80.8497C85.4576 81.7057 88.4663 82.8356 91.3552 84.2256L92.036 84.5632L91.4753 85.0596C89.8026 86.5238 88.5066 88.3627 87.6949 90.4238C86.883 92.4846 86.5791 94.708 86.8082 96.909C87.0374 99.1099 87.7928 101.225 89.012 103.078C90.2312 104.931 91.8789 106.468 93.8178 107.563C95.757 108.657 97.9313 109.276 100.16 109.37C102.389 109.463 104.608 109.027 106.633 108.098C108.658 107.169 110.43 105.775 111.802 104.03C113.174 102.285 114.106 100.241 114.521 98.0665L114.642 97.4311L115.242 97.7289C117.244 98.7219 119.006 99.5161 120.789 100.211C125 101.855 129.408 102.95 133.903 103.468H134.524L134.304 104.064C134.141 104.548 133.879 104.993 133.534 105.373C133.19 105.752 132.77 106.057 132.302 106.268L90.0737 124.517ZM62.8829 114.072C65.6171 114.072 68.3453 114.325 71.0321 114.827C78.0052 116.157 84.5678 119.088 90.1938 123.385L131.821 105.513C132.339 105.286 132.777 104.913 133.082 104.441C128.742 103.882 124.486 102.801 120.408 101.224C118.786 100.589 117.144 99.8538 115.362 98.9799C114.826 101.229 113.771 103.322 112.278 105.096C110.785 106.87 108.897 108.276 106.762 109.201C104.628 110.126 102.305 110.546 99.9785 110.428C97.6519 110.31 95.3851 109.656 93.357 108.519C91.3292 107.382 89.5958 105.792 88.2941 103.876C86.9923 101.96 86.158 99.7697 85.8569 97.4786C85.5559 95.1875 85.7964 92.8583 86.5595 90.6754C87.3228 88.4922 88.5876 86.5154 90.2539 84.9008C87.6194 83.6357 84.8793 82.5993 82.0647 81.8029C72.4503 79.408 62.3408 79.8426 52.9717 83.054C50.5452 83.8403 48.1653 84.7618 45.8435 85.8142L58.3777 114.29C59.8795 114.151 61.3812 114.072 62.8829 114.072Z" fill="#3D3DFF"/>
<path d="M70.9518 115.283C66.6915 114.514 62.3416 114.36 58.0371 114.827L65.1651 131.05C65.3396 131.454 65.5924 131.819 65.9095 132.125C66.2264 132.431 66.6011 132.672 67.0121 132.835C67.4231 132.997 67.8625 133.077 68.3048 133.071C68.7473 133.065 69.1841 132.972 69.5902 132.798L90.0735 123.941C84.4701 119.612 77.9207 116.646 70.9518 115.283Z" fill="#00FFAC"/>
<path d="M68.2693 133.572C67.7824 133.566 67.3007 133.472 66.8477 133.294C66.3786 133.12 65.9491 132.855 65.5847 132.514C65.2201 132.173 64.9281 131.763 64.7252 131.309L57.3369 114.469H58.0177C62.3572 114.006 66.7416 114.173 71.0325 114.965C78.0994 116.316 84.742 119.31 90.4145 123.703L91.0952 124.199L69.8111 133.155C69.3325 133.4 68.8071 133.543 68.2693 133.572ZM58.7986 115.283L65.6463 130.872C65.9488 131.562 66.5082 132.11 67.2081 132.401C67.9137 132.688 68.705 132.688 69.4106 132.401L89.133 123.882C83.7217 119.9 77.472 117.184 70.8523 115.938C66.8851 115.162 62.8277 114.942 58.7986 115.283Z" fill="#3D3DFF"/>
<path d="M133.763 101.482L122.471 75.6669H121.73C114.173 75.5934 106.939 72.6183 101.547 67.3663C98.2738 63.8996 93.9511 61.5851 89.2329 60.7736C83.8816 59.8093 78.9443 57.2778 75.0567 53.5056C74.1367 52.6098 73.2929 51.64 72.5338 50.6063L39.7969 64.765C39.3876 64.9381 39.0171 65.1895 38.7059 65.5049C38.395 65.8203 38.1497 66.1933 37.9842 66.6029C37.8187 67.0122 37.7362 67.4501 37.7414 67.8911C37.7467 68.3323 37.8395 68.768 38.0148 69.1733L45.2229 85.4965C47.7042 84.3552 50.2516 83.3606 52.8515 82.5178C62.3216 79.2922 72.5311 78.8576 82.2448 81.2668C85.3057 82.1127 88.2816 83.2362 91.1351 84.6229C91.8601 83.9877 92.6445 83.4225 93.4775 82.9348C95.8867 81.5477 98.6472 80.8769 101.43 81.0031C104.213 81.1291 106.9 82.0467 109.171 83.6461C111.443 85.2455 113.202 87.4595 114.24 90.0236C115.277 92.5874 115.549 95.3934 115.022 98.1064C116.844 99.0198 118.686 99.8736 120.608 100.628C124.861 102.275 129.309 103.376 133.843 103.905C134.122 103.116 134.093 102.252 133.763 101.482ZM56.2354 73.8997C55.3947 74.3789 54.4296 74.6004 53.4621 74.5362C52.4944 74.4717 51.5678 74.1244 50.7992 73.5381C50.0307 72.9515 49.4544 72.1524 49.1435 71.2412C48.8328 70.3302 48.8011 69.3484 49.0528 68.4196C49.3043 67.4908 49.8278 66.6568 50.5572 66.0229C51.2866 65.389 52.189 64.9837 53.1503 64.8583C54.1119 64.7327 55.0892 64.8928 55.959 65.318C56.8288 65.7431 57.5521 66.4146 58.0375 67.2471C58.3629 67.8005 58.5746 68.4123 58.6602 69.0473C58.7458 69.6821 58.7035 70.3276 58.5359 70.9463C58.3684 71.565 58.0788 72.1445 57.6839 72.6515C57.2889 73.1585 56.7967 73.5825 56.2354 73.8997Z" fill="#FFFF58"/>
<path d="M133.844 104.461C129.261 103.937 124.765 102.829 120.468 101.164C118.686 100.45 116.844 99.6353 114.842 98.6423C114.746 98.5873 114.67 98.5044 114.624 98.405C114.577 98.3056 114.563 98.1943 114.582 98.0863C115.147 95.2273 114.791 92.2642 113.566 89.6161C112.341 86.968 110.308 84.7688 107.754 83.3289C105.2 81.8891 102.254 81.2814 99.3334 81.592C96.4124 81.9026 93.6635 83.1155 91.4755 85.0596C91.3917 85.1126 91.2944 85.1407 91.1952 85.1407C91.0957 85.1407 90.9985 85.1126 90.9148 85.0596C88.0713 83.7078 85.109 82.6176 82.0648 81.8029C72.4504 79.408 62.341 79.8426 52.9717 83.0539C50.3918 83.8897 47.8642 84.8777 45.4032 86.0128C45.3442 86.0425 45.2791 86.0579 45.2131 86.0579C45.1468 86.0579 45.0817 86.0425 45.0227 86.0128C44.958 85.9963 44.8984 85.9642 44.8496 85.9191C44.8005 85.874 44.7637 85.8175 44.7424 85.7546L37.5543 69.3718C37.3561 68.9069 37.2539 68.4072 37.2539 67.9024C37.2539 67.3976 37.3561 66.8979 37.5543 66.433C37.9269 65.4991 38.6424 64.7399 39.5566 64.3081L72.2938 50.1892C72.3976 50.1481 72.5123 50.1413 72.6205 50.1699C72.7288 50.1984 72.8247 50.2609 72.8945 50.348C73.6518 51.3527 74.4816 52.3017 75.3771 53.1877C79.213 56.9174 84.1008 59.4037 89.3931 60.3166C94.216 61.1434 98.6328 63.515 101.967 67.0684C107.267 72.2306 114.382 75.1497 121.81 75.21C122.25 75.21 122.811 75.21 122.991 75.5278L134.284 101.343C134.655 102.254 134.655 103.272 134.284 104.183C134.242 104.263 134.179 104.332 134.101 104.381C134.024 104.429 133.935 104.457 133.844 104.461ZM115.563 97.8879C117.405 98.8013 119.107 99.5559 120.789 100.211C124.872 101.78 129.136 102.841 133.483 103.369C133.604 102.788 133.541 102.185 133.303 101.641L122.11 76.2228H121.71C114.02 76.1546 106.659 73.1205 101.186 67.7634C97.9914 64.3798 93.776 62.1153 89.1728 61.3094C83.7191 60.3318 78.6847 57.7592 74.7164 53.9225C73.8848 53.0933 73.109 52.2111 72.3939 51.2812L40.0172 65.2215C39.3249 65.5303 38.7797 66.0923 38.4954 66.7904C38.3467 67.1355 38.2701 67.5072 38.2701 67.8824C38.2701 68.2578 38.3467 68.6295 38.4954 68.9746L45.4632 84.861C47.822 83.8039 50.2347 82.8692 52.6914 82.0611C62.2422 78.7888 72.5486 78.354 82.3452 80.8099C85.333 81.63 88.2412 82.7135 91.035 84.0468C91.7164 83.4813 92.4467 82.9763 93.2173 82.5375C96.6613 80.5554 100.758 80.0108 104.607 81.0239C108.455 82.0367 111.741 84.524 113.741 87.9391C115.499 90.943 116.144 94.4623 115.563 97.8879ZM53.7926 75.0512C53.3198 75.0505 52.8489 74.9905 52.3912 74.8726C51.3606 74.5981 50.4351 74.0273 49.731 73.2322C49.0269 72.4372 48.5758 71.4531 48.4346 70.4042C48.2933 69.3553 48.468 68.2884 48.9369 67.338C49.4058 66.3875 50.148 65.5957 51.0697 65.0627C52.3081 64.3752 53.7695 64.1982 55.1384 64.5701C56.5072 64.9418 57.6738 65.8328 58.3861 67.0501C59.0985 68.2675 59.2994 69.7141 58.9458 71.0773C58.5922 72.4405 57.7121 73.611 56.4958 74.3363C55.6737 74.8057 54.7414 75.0523 53.7926 75.0512ZM53.7926 65.3207C53.0188 65.3258 52.2597 65.5312 51.5903 65.9166C51.095 66.2058 50.6626 66.5902 50.319 67.0471C49.9753 67.5041 49.7266 68.0243 49.588 68.5776C49.3893 69.2748 49.3688 70.0103 49.5281 70.7174C49.6875 71.4248 50.0215 72.0815 50.5005 72.6287C50.9795 73.1759 51.5881 73.5965 52.2718 73.8523C52.9554 74.1083 53.6923 74.1914 54.4164 74.0944C55.1406 73.9974 55.8288 73.7234 56.4196 73.2969C57.0104 72.8704 57.4848 72.305 57.8003 71.6513C58.1159 70.9979 58.2624 70.2767 58.227 69.5528C58.1913 68.829 57.975 68.1254 57.597 67.5052C57.2065 66.8423 56.6482 66.2922 55.9776 65.9091C55.3067 65.5259 54.5467 65.3232 53.7726 65.3207H53.7926Z" fill="#3D3DFF"/>
<path d="M113.32 88.2369C112.364 86.6001 111.093 85.1663 109.579 84.0169C108.065 82.8675 106.337 82.0253 104.494 81.5386C102.651 81.0516 100.73 80.9298 98.8396 81.1794C96.9493 81.4293 95.1274 82.046 93.4773 82.9944C92.6443 83.482 91.8599 84.0472 91.1349 84.6824C89.0782 86.4897 87.5809 88.8386 86.8171 91.4564C86.0534 94.0741 86.0545 96.8533 86.8202 99.4704C87.5861 102.088 89.085 104.436 91.1432 106.241C93.2012 108.047 95.7338 109.236 98.4464 109.671C101.159 110.105 103.94 109.768 106.467 108.696C108.994 107.625 111.162 105.865 112.72 103.62C114.278 101.375 115.161 98.738 115.267 96.0147C115.373 93.2916 114.698 90.5944 113.32 88.2369Z" fill="#7892FF"/>
<path d="M100.786 110.339C97.736 110.348 94.7554 109.435 92.2409 107.723C89.7263 106.01 87.7973 103.579 86.7103 100.753C85.6236 97.9262 85.4302 94.8384 86.1563 91.9002C86.8824 88.962 88.4933 86.3129 90.775 84.305C91.5328 83.6546 92.3507 83.0762 93.2176 82.5774C96.6616 80.5953 100.758 80.0507 104.607 81.0635C108.456 82.0766 111.741 84.5639 113.741 87.9787C115.063 90.2412 115.761 92.8088 115.764 95.4235C115.768 98.0382 115.078 100.608 113.763 102.874C112.448 105.14 110.555 107.023 108.273 108.334C105.992 109.644 103.403 110.336 100.766 110.339H100.786ZM100.786 81.5448C98.3336 81.5643 95.9291 82.2219 93.8128 83.4516C91.6965 84.6816 89.9428 86.4406 88.7269 88.5532C87.5108 90.6657 86.8751 93.0578 86.883 95.4903C86.8912 97.9229 87.5427 100.311 88.7727 102.415C89.6348 104.101 90.8344 105.594 92.2981 106.803C93.7618 108.013 95.4587 108.914 97.2854 109.452C99.1121 109.989 101.03 110.152 102.922 109.929C104.814 109.706 106.641 109.104 108.29 108.157C109.939 107.211 111.377 105.941 112.514 104.426C113.652 102.91 114.466 101.18 114.907 99.3415C115.348 97.503 115.406 95.5948 115.078 93.7332C114.75 91.8719 114.043 90.0963 113 88.5149C112.085 86.9329 110.861 85.5475 109.4 84.4394C107.939 83.3313 106.27 82.5228 104.49 82.0612C103.273 81.7154 102.013 81.5351 100.746 81.525L100.786 81.5448Z" fill="#3D3DFF"/>
<path d="M53.7719 74.5547C56.4812 74.5547 58.6773 72.3766 58.6773 69.6896C58.6773 67.0026 56.4812 64.8245 53.7719 64.8245C51.0626 64.8245 48.8662 67.0026 48.8662 69.6896C48.8662 72.3766 51.0626 74.5547 53.7719 74.5547Z" fill="#00FFAC"/>
<path d="M53.7926 75.0511C53.3195 75.0505 52.8487 74.9904 52.391 74.8723C51.3603 74.5981 50.4349 74.0273 49.7308 73.2322C49.0267 72.4371 48.5756 71.4531 48.4343 70.4042C48.2931 69.3553 48.4678 68.2884 48.9369 67.338C49.4058 66.3874 50.1477 65.5956 51.0695 65.0627C51.7852 64.6266 52.5934 64.3618 53.4302 64.2896C54.267 64.2172 55.1093 64.3393 55.8902 64.6461C56.6713 64.953 57.3693 65.4359 57.9293 66.0571C58.4892 66.678 58.8954 67.4198 59.1159 68.2237C59.3364 69.0276 59.365 69.8713 59.1993 70.6881C59.0338 71.5048 58.6785 72.2719 58.1618 72.9289C57.6452 73.5857 56.9813 74.1142 56.2229 74.472C55.4644 74.8301 54.6323 75.008 53.7926 74.9915V75.0511ZM53.7926 65.3207C53.0185 65.3258 52.2594 65.5312 51.5901 65.9165C51.0948 66.2057 50.6626 66.5902 50.3187 67.047C49.975 67.5038 49.7264 68.0242 49.5877 68.5774C49.3891 69.2748 49.3686 70.0103 49.5279 70.7174C49.6872 71.4245 50.0214 72.0815 50.5002 72.6287C50.9792 73.1759 51.5879 73.5964 52.2715 73.8522C52.9552 74.108 53.6921 74.1914 54.4162 74.0944C55.1403 73.9974 55.8288 73.7233 56.4194 73.2969C57.0102 72.8704 57.4846 72.3049 57.8001 71.6513C58.1156 70.9976 58.2622 70.2764 58.2267 69.5528C58.1913 68.829 57.9748 68.1254 57.5968 67.5052C57.2062 66.8423 56.648 66.2922 55.9773 65.909C55.3064 65.5259 54.5464 65.3231 53.7726 65.3207H53.7926Z" fill="#3D3DFF"/>
<path d="M130.22 121.992L129.495 120.385L125.807 119.938L127.911 116.878L127.186 115.27L124.17 120.031L124.654 121.103L130.22 121.992Z" fill="#3D3DFF"/>
<path d="M131.104 121.593L132.442 120.99L132.892 112.696L131.555 113.299L131.104 121.593Z" fill="#3D3DFF"/>
<path d="M136.855 118.999L139.871 114.238L139.387 113.166L133.82 112.277L134.546 113.884L138.234 114.331L136.129 117.391L136.855 118.999Z" fill="#3D3DFF"/>
</g>
<defs>
<filter id="filter0_d" x="0" y="0" width="176.783" height="182" filterUnits="userSpaceOnUse" color-interpolation-filters="sRGB">
<feFlood flood-opacity="0" result="BackgroundImageFix"/>
<feColorMatrix in="SourceAlpha" type="matrix" values="0 0 0 0 0 0 0 0 0 0 0 0 0 0 0 0 0 0 127 0"/>
<feOffset/>
<feGaussianBlur stdDeviation="8"/>
<feColorMatrix type="matrix" values="0 0 0 0 0.352941 0 0 0 0 0.470588 0 0 0 0 1 0 0 0 1 0"/>
<feBlend mode="normal" in2="BackgroundImageFix" result="effect1_dropShadow"/>
<feBlend mode="normal" in="SourceGraphic" in2="effect1_dropShadow" result="shape"/>
</filter>
</defs>
</svg>
