<svg width="212" height="195" viewBox="0 0 212 195" fill="none" xmlns="http://www.w3.org/2000/svg">
<g filter="url(#filter0_d)">
<path d="M162.708 168.156H162.565L35.6974 167.32C30.4644 167.282 25.4581 165.17 21.7689 161.442C18.0796 157.714 16.0061 152.673 16 147.416L16.7375 35.7841C16.7751 30.5281 18.8787 25.4998 22.5903 21.7943C26.3018 18.0888 31.3207 16.0062 36.5538 16L36.6965 16L163.492 16.8363C168.748 16.8805 173.773 19.0151 177.465 22.7726C181.156 26.5301 183.215 31.6041 183.19 36.8833L182.524 148.372C182.486 153.628 180.382 158.656 176.671 162.362C172.96 166.067 167.941 168.15 162.708 168.156ZM39.7891 143.45L158.735 144.239L159.424 40.7063L40.5028 39.8939L39.7891 143.45Z" fill="white"/>
<path d="M28.5137 51.8408L27.8952 147.417C27.8889 148.461 28.0876 149.497 28.4799 150.465C28.8723 151.433 29.4506 152.313 30.1817 153.057C30.9129 153.8 31.7827 154.391 32.7414 154.797C33.7002 155.203 34.7291 155.415 35.7694 155.421L162.637 156.257C163.682 156.264 164.719 156.063 165.687 155.666C166.654 155.269 167.535 154.684 168.277 153.945C169.02 153.206 169.61 152.327 170.014 151.358C170.418 150.39 170.627 149.351 170.63 148.301L171.249 52.7248L28.5137 51.8408Z" fill="#7B93FF"/>
<path d="M162.707 156.807L35.7687 155.971C33.5183 155.958 31.3643 155.051 29.7774 153.448C28.1905 151.845 27.2998 149.677 27.2998 147.416L27.8945 51.841C27.8945 51.6825 27.9572 51.5307 28.0687 51.4185C28.1802 51.3063 28.3315 51.2437 28.4893 51.2437L171.224 52.1754C171.382 52.1754 171.533 52.2384 171.644 52.3502C171.756 52.4624 171.819 52.6143 171.819 52.7727L171.2 148.348C171.193 149.475 170.965 150.588 170.528 151.626C170.091 152.663 169.454 153.604 168.655 154.393C167.068 155.957 164.93 156.824 162.707 156.807ZM29.1078 52.3903L28.4893 147.416C28.483 148.383 28.6663 149.341 29.0288 150.236C29.3912 151.132 29.9256 151.946 30.6016 152.634C31.2776 153.322 32.0818 153.87 32.9684 154.245C33.8549 154.621 34.8065 154.817 35.7687 154.824L162.66 155.66C164.595 155.66 166.451 154.891 167.824 153.521C169.197 152.151 169.974 150.292 169.987 148.348L170.629 53.3224L29.1078 52.3903Z" fill="#3D3DFF"/>
<path d="M171.366 36.8116C171.375 35.7647 171.179 34.7262 170.788 33.7557C170.397 32.7852 169.819 31.9017 169.088 31.1559C168.357 30.41 167.485 29.8165 166.525 29.4094C165.565 29.0022 164.534 28.7895 163.492 28.7832L36.6007 27.9469C35.5604 27.9406 34.529 28.1402 33.5655 28.5342C32.602 28.9283 31.7252 29.5091 30.9852 30.2435C30.2452 30.9779 29.6564 31.8516 29.2525 32.8145C28.8487 33.7775 28.6376 34.8109 28.6313 35.8558V51.7929L171.366 52.725V36.8116Z" fill="#F2F2F2"/>
<path d="M171.248 53.3227L28.5136 52.3906C28.3597 52.3972 28.2092 52.3439 28.0938 52.2411C27.9785 52.1387 27.9072 51.9952 27.895 51.8409V35.9038C27.8949 34.7683 28.1198 33.6442 28.5567 32.5969C28.9936 31.5497 29.6337 30.6002 30.4397 29.804C31.2457 29.0078 32.2015 28.3807 33.2513 27.9593C34.3011 27.538 35.4239 27.3308 36.5543 27.3498L163.493 28.1861C165.752 28.2113 167.909 29.132 169.496 30.7476C171.082 32.3631 171.968 34.5428 171.962 36.8118V52.7253C171.964 52.8148 171.946 52.9036 171.909 52.9851C171.871 53.0667 171.817 53.1388 171.748 53.1962C171.679 53.2533 171.599 53.2948 171.513 53.3164C171.426 53.3383 171.336 53.3404 171.248 53.3227ZM29.1083 51.1959L170.654 52.1279V36.7879C170.66 34.8583 169.915 33.0027 168.577 31.6183C167.238 30.2339 165.414 29.4308 163.493 29.3808L36.6018 28.5445C35.6397 28.5382 34.6856 28.7224 33.7943 29.0864C32.9029 29.4504 32.0917 29.9873 31.4069 30.6662C30.7221 31.3451 30.1771 32.1529 29.8031 33.0434C29.4291 33.9339 29.2334 34.8896 29.2272 35.8561L29.1083 51.1959Z" fill="#3D3DFF"/>
<path d="M40.5035 43.9083C42.6976 43.9083 44.4763 42.1218 44.4763 39.918C44.4763 37.7142 42.6976 35.9277 40.5035 35.9277C38.3095 35.9277 36.5308 37.7142 36.5308 39.918C36.5308 42.1218 38.3095 43.9083 40.5035 43.9083Z" fill="#FF6777"/>
<path d="M40.5037 44.5058C39.6109 44.4804 38.7451 44.1925 38.0134 43.6779C37.2817 43.1632 36.7164 42.4444 36.3873 41.6104C36.0582 40.7763 35.9797 39.8637 36.1617 38.9854C36.3437 38.107 36.7781 37.3015 37.4112 36.6686C37.832 36.2437 38.3325 35.9067 38.8837 35.677C39.4349 35.4474 40.026 35.3296 40.6227 35.3306C41.8051 35.3677 42.927 35.8641 43.7523 36.7153C44.5776 37.5665 45.0419 38.7062 45.0475 39.8943C45.0526 40.5 44.935 41.1004 44.7019 41.659C44.4688 42.2176 44.125 42.7228 43.6915 43.1439C42.8467 43.9985 41.7026 44.4873 40.5037 44.5058ZM40.5037 36.5252C39.6137 36.5267 38.7597 36.8784 38.1248 37.5049C37.4973 38.1404 37.1451 38.9992 37.1451 39.8943C37.1451 40.7894 37.4973 41.6482 38.1248 42.2837C38.4366 42.5987 38.8072 42.8486 39.2155 43.0192C39.6238 43.1898 40.0616 43.2776 40.5037 43.2776C40.9459 43.2776 41.3838 43.1898 41.792 43.0192C42.2003 42.8486 42.5709 42.5987 42.8827 42.2837C43.1991 41.9722 43.4504 41.6004 43.622 41.1901C43.7936 40.7799 43.8819 40.3393 43.8818 39.8943C43.8933 39.4498 43.8125 39.0079 43.6446 38.5965C43.4767 38.1851 43.2253 37.8133 42.9065 37.5049C42.2793 36.8609 41.4244 36.4916 40.5275 36.4775L40.5037 36.5252Z" fill="#3D3DFF"/>
<path d="M56.3469 44.004C58.5413 44.004 60.3197 42.2175 60.3197 40.0137C60.3197 37.8099 58.5413 36.0234 56.3469 36.0234C54.1529 36.0234 52.374 37.8099 52.374 40.0137C52.374 42.2175 54.1529 44.004 56.3469 44.004Z" fill="#00FFAC"/>
<path d="M56.4418 44.6723C55.8187 44.6862 55.1994 44.5711 54.6226 44.3342C54.0458 44.0974 53.5233 43.7439 53.0882 43.2957C52.6532 42.8474 52.3146 42.3141 52.0935 41.7288C51.8723 41.1436 51.7734 40.5189 51.803 39.8935C51.8343 38.6873 52.3397 37.5425 53.2091 36.7096C54.0785 35.8768 55.2408 35.4236 56.4418 35.4493C57.6595 35.4493 58.8274 35.9351 59.6884 36.8C60.5495 37.6648 61.0333 38.8378 61.0333 40.0608C61.0333 41.2839 60.5495 42.4568 59.6884 43.3216C58.8274 44.1865 57.6595 44.6723 56.4418 44.6723ZM56.4418 36.7157C55.5696 36.6954 54.7232 37.0149 54.0802 37.6073C53.4373 38.1997 53.0475 39.019 52.9925 39.8935C52.9691 40.3569 53.0419 40.8202 53.2063 41.2538C53.3707 41.6874 53.6233 42.0819 53.9475 42.4122C54.2718 42.7426 54.6612 43.0015 55.0907 43.1726C55.5202 43.3437 55.9803 43.4231 56.4418 43.406C56.9079 43.4453 57.3767 43.3872 57.819 43.2351C58.2614 43.0831 58.6672 42.8405 59.0113 42.5227C59.3554 42.2049 59.6303 41.8188 59.8184 41.3889C60.0061 40.959 60.1033 40.4945 60.1033 40.025C60.1033 39.5554 60.0061 39.091 59.8184 38.6611C59.6303 38.2311 59.3554 37.845 59.0113 37.5272C58.6672 37.2094 58.2614 36.9669 57.819 36.8148C57.3767 36.6628 56.9079 36.6046 56.4418 36.644V36.7157Z" fill="#3D3DFF"/>
<path d="M72.2131 44.1226C74.4071 44.1226 76.1859 42.3361 76.1859 40.1324C76.1859 37.9286 74.4071 36.1421 72.2131 36.1421C70.0191 36.1421 68.2402 37.9286 68.2402 40.1324C68.2402 42.3361 70.0191 44.1226 72.2131 44.1226Z" fill="#00CDFF"/>
<path d="M72.2124 44.6723C71.6087 44.6676 71.0121 44.5426 70.4565 44.3047C69.9013 44.0669 69.3984 43.7208 68.9772 43.2865C68.5572 42.8626 68.2252 42.3591 68.0009 41.8054C67.7763 41.2517 67.6634 40.6587 67.6686 40.0608C67.6749 38.8482 68.1591 37.6875 69.0149 36.8323C69.8707 35.9771 71.0288 35.497 72.2361 35.4971C73.4475 35.4971 74.6095 35.9804 75.466 36.8408C76.3225 37.7011 76.8038 38.868 76.8038 40.0847C76.8038 41.3014 76.3225 42.4683 75.466 43.3286C74.6095 44.189 73.4475 44.6723 72.2361 44.6723H72.2124ZM72.2124 36.6917C71.3207 36.6917 70.4649 37.0459 69.832 37.6771C69.1995 38.3082 68.8407 39.1651 68.8344 40.0608C68.8299 40.5043 68.9138 40.9442 69.0814 41.3546C69.2489 41.765 69.4966 42.1375 69.8097 42.4502C70.4398 43.09 71.2928 43.4585 72.1887 43.4776C72.6297 43.4795 73.0671 43.3939 73.4754 43.2258C73.8836 43.0577 74.2545 42.8104 74.5677 42.498C75.2044 41.8652 75.5715 41.0083 75.5903 40.1086C75.5907 39.2106 75.2385 38.3487 74.6109 37.7093C73.9832 37.0698 73.1302 36.7043 72.2361 36.6917H72.2124Z" fill="#3D3DFF"/>
<path d="M163.493 45.3181C163.332 45.3108 163.179 45.2425 163.065 45.1269L155.072 37.1225C154.962 37.0084 154.901 36.855 154.903 36.6959C154.905 36.5368 154.971 36.3852 155.084 36.2742C155.198 36.1633 155.35 36.1023 155.509 36.1046C155.667 36.1068 155.818 36.1721 155.928 36.2862L163.803 44.2907C163.912 44.4023 163.973 44.5524 163.973 44.7088C163.973 44.8651 163.912 45.0153 163.803 45.1269C163.72 45.2192 163.613 45.2856 163.493 45.3181Z" fill="#3D3DFF"/>
<path d="M155.452 45.2697C155.371 45.2686 155.292 45.2511 155.218 45.2182C155.145 45.1854 155.078 45.1378 155.024 45.0785C154.967 45.0249 154.921 44.9601 154.89 44.8882C154.859 44.8163 154.843 44.7387 154.843 44.6604C154.843 44.582 154.859 44.5045 154.89 44.4325C154.921 44.3606 154.967 44.2959 155.024 44.2422L163.017 36.3333C163.131 36.2471 163.273 36.2052 163.416 36.2154C163.558 36.2255 163.693 36.2872 163.794 36.3888C163.895 36.4905 163.957 36.6254 163.967 36.7689C163.977 36.9123 163.935 37.0546 163.849 37.1696L155.856 45.0785C155.751 45.1926 155.606 45.2612 155.452 45.2697Z" fill="#3D3DFF"/>
<path d="M147.578 37.2415L84.1325 36.8114C83.9747 36.8114 83.8236 36.7484 83.7118 36.6364C83.6003 36.5244 83.5376 36.3725 83.5376 36.214C83.5376 36.0556 83.6003 35.9037 83.7118 35.7917C83.8236 35.6796 83.9747 35.6167 84.1325 35.6167L147.578 36.0468C147.736 36.0468 147.887 36.1097 147.998 36.2217C148.11 36.3338 148.173 36.4857 148.173 36.6441C148.167 36.8006 148.102 36.9492 147.992 37.06C147.882 37.1707 147.734 37.2356 147.578 37.2415Z" fill="#3D3DFF"/>
<path d="M147.508 45.1985L84.0856 44.7923C83.9279 44.7923 83.7767 44.7294 83.6652 44.6174C83.5534 44.5054 83.4907 44.3534 83.4907 44.195C83.4907 44.0366 83.5534 43.8846 83.6652 43.7726C83.7767 43.6606 83.9279 43.5977 84.0856 43.5977L147.531 44.0039C147.685 44.01 147.83 44.0757 147.936 44.187C148.043 44.2984 148.102 44.4468 148.102 44.6012C148.102 44.7596 148.039 44.9116 147.928 45.0236C147.816 45.1356 147.665 45.1985 147.508 45.1985Z" fill="#3D3DFF"/>
<path d="M120.235 108.538C120.393 107.676 120.54 106.865 120.688 106.053C121.169 103.413 121.65 100.774 122.131 98.134C122.375 96.7923 122.611 95.4489 122.864 94.1089C122.961 93.5913 123.115 93.0939 123.52 92.7132C123.737 92.498 124.028 92.3726 124.333 92.3628C124.923 92.3468 125.514 92.3493 126.105 92.3493C126.927 92.3493 127.331 92.7132 127.471 93.5234C127.591 94.219 127.452 94.8888 127.322 95.5607C126.633 99.1208 125.944 102.681 125.253 106.241C124.581 109.707 123.907 113.173 123.232 116.638C122.929 118.186 122.628 119.734 122.283 121.273C122.026 122.418 121.658 123.532 121.054 124.55C120.129 126.113 118.772 126.932 116.935 126.917C116.08 126.91 115.236 126.842 114.466 126.43C113.681 126.008 113.214 125.376 113.202 124.452C113.194 123.846 113.196 123.242 113.382 122.656C113.631 121.868 114.186 121.551 114.984 121.744C115.161 121.788 115.338 121.838 115.515 121.886C115.785 121.96 116.056 122.032 116.326 122.108C116.571 122.176 116.74 122.099 116.885 121.882C117.427 121.069 117.632 120.161 117.674 119.202C117.71 118.341 117.496 117.516 117.29 116.695C116.329 112.872 115.357 109.052 114.375 105.234C113.506 101.821 112.635 98.4095 111.762 94.9989C111.608 94.4022 111.618 93.7749 111.79 93.1831C111.941 92.6596 112.29 92.3712 112.837 92.3607C113.685 92.3444 114.534 92.3503 115.383 92.3562C116.167 92.3611 116.652 92.8191 116.875 93.5739C117.112 94.3782 117.273 95.2051 117.456 96.0247C118.363 100.126 119.267 104.228 120.17 108.331C120.184 108.382 120.203 108.435 120.235 108.538Z" fill="white"/>
<path d="M100.52 97.288C100.148 97.288 99.8117 97.2932 99.4717 97.288C98.6302 97.2723 98.1429 96.8449 98.0147 96.0135C97.9788 95.8031 97.9604 95.5899 97.959 95.3764C97.968 94.7867 97.9705 94.196 98.0241 93.6101C98.0468 93.3642 98.1638 93.1127 98.2899 92.8933C98.4916 92.5419 98.8332 92.3782 99.2317 92.3618C99.6511 92.3468 100.073 92.3583 100.516 92.3583C100.536 92.0211 100.557 91.708 100.572 91.3945C100.7 88.7115 100.82 86.0284 100.958 83.3457C100.975 82.9197 101.042 82.4969 101.157 82.0865C101.347 81.4443 101.778 81.1562 102.442 81.1444C102.98 81.135 103.52 81.1621 104.058 81.1374C105.153 81.0869 105.575 81.771 105.672 82.5989C105.703 82.8922 105.718 83.1872 105.716 83.4826C105.719 86.3388 105.719 89.1953 105.716 92.0514V92.3451H105.969C106.751 92.3451 107.534 92.3712 108.316 92.3391C109.482 92.2914 109.911 92.9961 109.958 93.8341C109.998 94.5628 109.986 95.2932 109.921 96.0198C109.851 96.8202 109.291 97.2789 108.485 97.2845C107.636 97.2901 106.787 97.2845 105.938 97.2845C105.873 97.2845 105.809 97.2901 105.728 97.2942C105.724 97.3768 105.717 97.4482 105.717 97.5196C105.717 102.185 105.719 106.85 105.722 111.516C105.722 112.558 105.8 113.594 106.162 114.588C106.436 115.34 106.605 115.464 107.411 115.465C108.038 115.465 108.665 115.461 109.293 115.475C110.045 115.493 110.533 115.886 110.622 116.632C110.72 117.445 110.736 118.268 110.59 119.08C110.484 119.67 110.058 120.065 109.464 120.133C109.148 120.166 108.831 120.179 108.514 120.173C107.6 120.167 106.681 120.194 105.771 120.129C103.6 119.972 102.114 118.852 101.334 116.82C100.868 115.605 100.657 114.331 100.584 113.038C100.53 112.067 100.519 111.09 100.518 110.115C100.515 105.948 100.516 101.78 100.52 97.6116V97.288Z" fill="white"/>
<path d="M74.9199 87.9849C74.411 88.112 73.9355 88.2102 73.4726 88.3513C72.6018 88.6171 71.9428 88.104 71.7941 87.2966C71.7537 87.0792 71.7325 86.8584 71.7311 86.6372C71.7311 85.8473 71.7231 85.0576 71.7506 84.2691C71.776 83.539 72.1665 83.0364 72.8687 82.8486C74.9192 82.298 76.9725 81.7612 79.0279 81.2377C79.9018 81.0162 80.5712 81.4902 80.6959 82.3809C80.7412 82.6943 80.7649 83.011 80.7663 83.3276C80.7701 94.6791 80.7701 106.031 80.7663 117.382C80.7663 117.95 80.7506 118.518 80.5751 119.067C80.3316 119.831 79.9276 120.13 79.1247 120.13C78.2386 120.13 77.3528 120.13 76.4671 120.13C75.8028 120.13 75.4005 119.884 75.1828 119.257C75.0529 118.887 74.9989 118.486 74.9442 118.094C74.9066 117.826 74.9227 117.549 74.9227 117.276C74.9227 107.629 74.9227 97.9828 74.9227 88.3367L74.9199 87.9849Z" fill="white"/>
<path d="M87.8695 87.9842C87.3701 88.1085 86.8929 88.2057 86.4293 88.3488C85.5247 88.6254 84.8441 88.0691 84.7319 87.214C84.6901 86.8403 84.6734 86.4645 84.6818 86.0886C84.6849 85.4241 84.6745 84.7598 84.7319 84.0994C84.7894 83.439 85.1903 83.0113 85.8354 82.8403C87.6954 82.3471 89.5557 81.8591 91.4157 81.376C91.7484 81.2896 92.0935 81.2067 92.4345 81.2032C93.0709 81.1966 93.5056 81.6059 93.6303 82.2875C93.6878 82.5996 93.7174 82.9159 93.7191 83.2332C93.7229 94.6523 93.7212 106.071 93.7146 117.49C93.7132 118.013 93.6501 118.533 93.5265 119.04C93.3335 119.825 92.8849 120.126 92.0779 120.126H89.484C88.6985 120.126 88.2614 119.827 88.0632 119.067C87.9472 118.634 87.8856 118.187 87.8793 117.738C87.8629 114.778 87.8695 111.819 87.8695 108.859C87.8695 102.008 87.8695 95.158 87.8695 88.3074V87.9842Z" fill="white"/>
<path d="M167.873 144.192C168.917 146.058 169.588 148.104 169.846 150.213C170.104 152.322 169.945 154.453 169.378 156.484C168.81 158.515 167.846 160.406 166.54 162.05C165.234 163.693 163.611 165.056 161.765 166.062C163.61 165.055 165.643 164.425 167.747 164.209C169.852 163.994 171.986 164.195 174.029 164.803C176.072 165.412 177.983 166.414 179.653 167.754C181.323 169.093 182.719 170.744 183.761 172.61C182.717 170.744 182.047 168.699 181.788 166.589C181.53 164.48 181.689 162.349 182.257 160.319C182.824 158.288 183.788 156.396 185.094 154.753C186.401 153.11 188.023 151.746 189.869 150.741C188.024 151.748 185.991 152.377 183.887 152.593C181.783 152.809 179.648 152.607 177.605 151.999C175.563 151.391 173.652 150.388 171.982 149.049C170.312 147.709 168.916 146.059 167.873 144.192Z" fill="white"/>
<path d="M167.873 144.192C168.917 146.058 169.588 148.104 169.846 150.213C170.104 152.322 169.945 154.453 169.378 156.484C168.81 158.515 167.846 160.406 166.54 162.05C165.234 163.693 163.611 165.056 161.765 166.062C163.61 165.055 165.643 164.425 167.747 164.209C169.852 163.994 171.986 164.195 174.029 164.803C176.072 165.412 177.983 166.414 179.653 167.754C181.323 169.093 182.719 170.744 183.761 172.61C182.717 170.744 182.047 168.699 181.788 166.589C181.53 164.48 181.689 162.349 182.257 160.319C182.824 158.288 183.788 156.396 185.094 154.753C186.401 153.11 188.023 151.746 189.869 150.741C188.024 151.748 185.991 152.377 183.887 152.593C181.783 152.809 179.648 152.607 177.605 151.999C175.563 151.391 173.652 150.388 171.982 149.049C170.312 147.709 168.916 146.059 167.873 144.192Z" fill="white"/>
<path d="M184.085 172.934L183.991 173.029C183.904 173.075 183.804 173.092 183.705 173.077C183.607 173.062 183.515 173.016 183.444 172.945C183.408 172.917 183.375 172.885 183.347 172.849C181.3 169.193 177.904 166.468 173.902 165.271C169.9 164.074 165.618 164.503 161.994 166.463C161.908 166.511 161.808 166.529 161.709 166.514C161.61 166.498 161.518 166.451 161.448 166.379C161.411 166.352 161.379 166.319 161.351 166.283C161.321 166.229 161.302 166.171 161.295 166.11C161.288 166.049 161.293 165.988 161.311 165.93C161.328 165.872 161.357 165.818 161.395 165.772C161.434 165.726 161.482 165.688 161.536 165.661C165.155 163.686 167.814 160.339 168.928 156.355C170.042 152.372 169.52 148.077 167.476 144.414C167.427 144.317 167.413 144.206 167.436 144.1C167.46 143.995 167.519 143.901 167.605 143.837C167.691 143.772 167.797 143.739 167.906 143.745C168.014 143.75 168.118 143.794 168.199 143.867C168.235 143.895 168.268 143.927 168.296 143.963C170.34 147.62 173.735 150.346 177.737 151.541C181.739 152.737 186.02 152.305 189.64 150.34C189.726 150.292 189.827 150.275 189.926 150.29C190.025 150.305 190.116 150.352 190.187 150.424C190.223 150.452 190.255 150.484 190.283 150.52C190.34 150.629 190.353 150.755 190.319 150.872C190.284 150.988 190.205 151.085 190.099 151.143C186.481 153.12 183.825 156.467 182.711 160.449C181.597 164.432 182.117 168.726 184.158 172.389C184.207 172.476 184.227 172.577 184.214 172.676C184.201 172.775 184.155 172.865 184.085 172.934ZM165.153 164.215C168.093 163.442 171.205 163.497 174.149 164.373C177.093 165.25 179.756 166.914 181.846 169.184C181.013 166.231 181.004 163.121 181.82 160.195C182.636 157.27 184.246 154.641 186.472 152.597C183.535 153.368 180.426 153.312 177.485 152.436C174.544 151.559 171.885 149.896 169.797 147.627C170.624 150.583 170.628 153.693 169.809 156.618C168.99 159.542 167.38 162.17 165.153 164.215Z" fill="#0000FF"/>
<path d="M188.138 176.988C187.736 177.394 187.275 177.737 186.77 178.006C185.614 178.635 184.277 178.868 182.96 178.669C181.643 178.47 180.418 177.849 179.469 176.901C179.057 176.49 178.703 176.026 178.415 175.521C177.773 174.361 176.909 173.336 175.874 172.504C174.839 171.673 173.653 171.051 172.386 170.676C171.118 170.297 169.793 170.172 168.487 170.306C167.18 170.44 165.919 170.831 164.774 171.458C163.617 172.087 162.28 172.319 160.964 172.12C159.647 171.921 158.422 171.301 157.473 170.353C157.059 169.942 156.707 169.475 156.428 168.964C156.031 168.255 155.777 167.478 155.678 166.677C155.58 165.877 155.641 165.067 155.856 164.296C156.071 163.524 156.437 162.806 156.933 162.182C157.429 161.558 158.044 161.039 158.745 160.657C161.056 159.397 162.753 157.26 163.463 154.717C164.174 152.174 163.841 149.433 162.536 147.095C161.814 145.795 161.579 144.288 161.876 142.849C162.172 141.411 162.979 140.138 164.149 139.264C165.319 138.39 166.773 137.974 168.245 138.091C169.717 138.208 171.108 138.851 172.163 139.902C172.575 140.313 172.93 140.777 173.217 141.282C173.862 142.441 174.727 143.466 175.762 144.298C176.798 145.13 177.983 145.752 179.25 146.13C180.518 146.508 181.842 146.633 183.148 146.498C184.454 146.363 185.714 145.972 186.858 145.346C188.015 144.716 189.352 144.484 190.668 144.683C191.985 144.882 193.21 145.503 194.159 146.45C194.573 146.86 194.926 147.329 195.205 147.839C195.601 148.548 195.856 149.325 195.954 150.126C196.052 150.927 195.992 151.736 195.776 152.507C195.561 153.279 195.195 153.997 194.699 154.621C194.204 155.246 193.588 155.764 192.887 156.146C190.577 157.407 188.88 159.543 188.169 162.086C187.458 164.629 187.792 167.371 189.097 169.708C189.749 170.878 190.008 172.22 189.836 173.533C189.663 174.846 189.067 176.058 188.138 176.988ZM175.101 158.802C175.474 158.901 175.84 159.009 176.213 159.125C176.296 158.762 176.397 158.399 176.515 158.036C176.323 157.982 176.141 157.937 175.958 157.874L175.402 157.678L175.101 158.802Z" fill="white"/>
<path d="M167.873 144.192C168.917 146.058 169.588 148.104 169.846 150.213C170.104 152.322 169.945 154.453 169.378 156.484C168.81 158.515 167.846 160.406 166.54 162.05C165.234 163.693 163.611 165.056 161.765 166.062C163.61 165.055 165.643 164.425 167.747 164.209C169.852 163.994 171.986 164.195 174.029 164.803C176.072 165.412 177.983 166.414 179.653 167.754C181.323 169.093 182.719 170.744 183.761 172.61C182.717 170.744 182.047 168.699 181.788 166.589C181.53 164.48 181.689 162.349 182.257 160.319C182.824 158.288 183.788 156.396 185.094 154.753C186.401 153.11 188.023 151.746 189.869 150.741C188.024 151.748 185.991 152.377 183.887 152.593C181.783 152.809 179.648 152.607 177.605 151.999C175.563 151.391 173.652 150.388 171.982 149.049C170.312 147.709 168.916 146.059 167.873 144.192Z" fill="white"/>
<path d="M184.085 172.934L183.991 173.029C183.904 173.075 183.804 173.092 183.705 173.077C183.607 173.062 183.515 173.016 183.444 172.945C183.408 172.917 183.375 172.885 183.347 172.849C181.3 169.193 177.904 166.468 173.902 165.271C169.9 164.074 165.618 164.503 161.994 166.463C161.908 166.511 161.808 166.529 161.709 166.514C161.61 166.498 161.518 166.451 161.448 166.379C161.411 166.352 161.379 166.319 161.351 166.283C161.321 166.229 161.302 166.171 161.295 166.11C161.288 166.049 161.293 165.988 161.311 165.93C161.328 165.872 161.357 165.818 161.395 165.772C161.434 165.726 161.482 165.688 161.536 165.661C165.155 163.686 167.814 160.339 168.928 156.355C170.042 152.372 169.52 148.077 167.476 144.414C167.427 144.317 167.413 144.206 167.436 144.1C167.46 143.995 167.519 143.901 167.605 143.837C167.691 143.772 167.797 143.739 167.906 143.745C168.014 143.75 168.118 143.794 168.199 143.867C168.235 143.895 168.268 143.927 168.296 143.963C170.34 147.62 173.735 150.346 177.737 151.541C181.739 152.737 186.02 152.305 189.64 150.34C189.726 150.292 189.827 150.275 189.926 150.29C190.025 150.305 190.116 150.352 190.187 150.424C190.223 150.452 190.255 150.484 190.283 150.52C190.34 150.629 190.353 150.755 190.319 150.872C190.284 150.988 190.205 151.085 190.099 151.143C186.481 153.12 183.825 156.467 182.711 160.449C181.597 164.432 182.117 168.726 184.158 172.389C184.207 172.476 184.227 172.577 184.214 172.676C184.201 172.775 184.155 172.865 184.085 172.934ZM165.153 164.215C168.093 163.442 171.205 163.497 174.149 164.373C177.093 165.25 179.756 166.914 181.846 169.184C181.013 166.231 181.004 163.121 181.82 160.195C182.636 157.27 184.246 154.641 186.472 152.597C183.535 153.368 180.426 153.312 177.485 152.436C174.544 151.559 171.885 149.896 169.797 147.627C170.624 150.583 170.628 153.693 169.809 156.618C168.99 159.542 167.38 162.17 165.153 164.215Z" fill="#0000FF"/>
</g>
<defs>
<filter id="filter0_d" x="0" y="0" width="212" height="194.738" filterUnits="userSpaceOnUse" color-interpolation-filters="sRGB">
<feFlood flood-opacity="0" result="BackgroundImageFix"/>
<feColorMatrix in="SourceAlpha" type="matrix" values="0 0 0 0 0 0 0 0 0 0 0 0 0 0 0 0 0 0 127 0"/>
<feOffset/>
<feGaussianBlur stdDeviation="8"/>
<feColorMatrix type="matrix" values="0 0 0 0 0.352941 0 0 0 0 0.470588 0 0 0 0 1 0 0 0 1 0"/>
<feBlend mode="normal" in2="BackgroundImageFix" result="effect1_dropShadow"/>
<feBlend mode="normal" in="SourceGraphic" in2="effect1_dropShadow" result="shape"/>
</filter>
</defs>
</svg>
