<?xml version="1.0" encoding="UTF-8"?>
<svg width="464px" height="304px" viewBox="0 0 464 304" version="1.1" xmlns="http://www.w3.org/2000/svg" xmlns:xlink="http://www.w3.org/1999/xlink">
    <!-- Generator: Sketch 55.2 (78181) - https://sketchapp.com -->
    <title>teams-shape</title>
    <desc>Created with Sketch.</desc>
    <defs>
        <circle id="path-1" cx="69.5" cy="69.5" r="69"></circle>
        <path d="M287.737038,37.5749575 C317.433246,19.2731108 353.834327,-8.50297356 392.974378,2.50258409 C432.114429,13.5081417 463.059993,54.5471042 463.059993,96.8170926 C463.059993,139.087081 432.613381,222.863613 366.209349,258.178321 C299.805317,293.493028 222.757761,320.87236 128.658901,288.730727 C34.5600418,256.589094 18.5298554,162.61881 28.7873807,120.98042 C39.0449061,79.34203 66.5595485,50.1665251 90.8995476,43.8707413 C115.239547,37.5749575 128.911976,50.5204015 176.022272,62.3752627 C223.132568,74.2301238 258.040829,55.8768042 287.737038,37.5749575 Z" id="path-3"></path>
        <circle id="path-5" cx="69.5744558" cy="69.2717092" r="69"></circle>
        <path d="M261.665439,37.6540509 C291.363613,19.3522042 327.767104,-8.42388017 366.909746,2.58167748 C406.052388,13.5872351 437,54.6261976 437,96.896186 C437,139.166174 406.551372,222.942706 340.142945,258.257414 C273.734517,293.572122 196.681861,320.951453 102.576773,288.80982 C8.4716839,256.668187 -7.55956358,162.697904 2.69864074,121.059514 C12.9568451,79.4211234 40.4733088,50.2456185 64.8149192,43.9498347 C89.1565296,37.6540509 102.829864,50.5994949 149.943278,62.4543561 C197.056692,74.3092172 231.967265,55.9558976 261.665439,37.6540509 Z" id="path-7"></path>
    </defs>
    <g id="Pattern-Examples" stroke="none" stroke-width="1" fill="none" fill-rule="evenodd">
        <g id="work" transform="translate(-11.000000, -79.000000)">
            <g id="teams-shape" transform="translate(11.000000, 79.692616)">
                <g id="zig-zag-exterior" transform="translate(0.074456, 81.000000)">
                    <mask id="mask-2" fill="white">
                        <use xlink:href="#path-1"></use>
                    </mask>
                    <g id="Oval" fill-rule="nonzero"></g>
                    <g id="zig-zag" mask="url(#mask-2)" fill-rule="nonzero" stroke="#FFE676" stroke-linecap="round" stroke-width="2">
                        <g transform="translate(85.668081, 64.747395) rotate(-10.000000) translate(-85.668081, -64.747395) translate(1.168081, -82.252605)">
                            <polyline id="Path" points="0 0 8.23302523 8 16.2409189 0 24.1513393 8 32.2491598 0 40.4023199 8 48.5070578 0 56.414334 8 64.2335698 0 72.0597231 8 80.2474705 0.641902023 88.4308158 8 96.2186087 0 104.320202 8 112.529331 0 120.439751 8 128.411171 0 136.502703 8 144.547699 0 152.269462 8 160.360994 0 168.360084 8"></polyline>
                            <polyline id="Path-Copy" points="0 13 8.23302523 21 16.2409189 13 24.1513393 21 32.2491598 13 40.4023199 21 48.5070578 13 56.414334 21 64.2335698 13 72.0597231 21 80.2474705 13.641902 88.4308158 21 96.2186087 13 104.320202 21 112.529331 13 120.439751 21 128.411171 13 136.502703 21 144.547699 13 152.269462 21 160.360994 13 168.360084 21"></polyline>
                            <polyline id="Path-Copy-2" points="0 26 8.23302523 34 16.2409189 26 24.1513393 34 32.2491598 26 40.4023199 34 48.5070578 26 56.414334 34 64.2335698 26 72.0597231 34 80.2474705 26.641902 88.4308158 34 96.2186087 26 104.320202 34 112.529331 26 120.439751 34 128.411171 26 136.502703 34 144.547699 26 152.269462 34 160.360994 26 168.360084 34"></polyline>
                            <polyline id="Path-Copy-3" points="0 39 8.23302523 47 16.2409189 39 24.1513393 47 32.2491598 39 40.4023199 47 48.5070578 39 56.414334 47 64.2335698 39 72.0597231 47 80.2474705 39.641902 88.4308158 47 96.2186087 39 104.320202 47 112.529331 39 120.439751 47 128.411171 39 136.502703 47 144.547699 39 152.269462 47 160.360994 39 168.360084 47"></polyline>
                            <polyline id="Path-Copy-4" points="0 52 8.23302523 60 16.2409189 52 24.1513393 60 32.2491598 52 40.4023199 60 48.5070578 52 56.414334 60 64.2335698 52 72.0597231 60 80.2474705 52.641902 88.4308158 60 96.2186087 52 104.320202 60 112.529331 52 120.439751 60 128.411171 52 136.502703 60 144.547699 52 152.269462 60 160.360994 52 168.360084 60"></polyline>
                            <polyline id="Path-Copy-5" points="0 65 8.23302523 73 16.2409189 65 24.1513393 73 32.2491598 65 40.4023199 73 48.5070578 65 56.414334 73 64.2335698 65 72.0597231 73 80.2474705 65.641902 88.4308158 73 96.2186087 65 104.320202 73 112.529331 65 120.439751 73 128.411171 65 136.502703 73 144.547699 65 152.269462 73 160.360994 65 168.360084 73"></polyline>
                            <polyline id="Path-Copy-6" points="0 78 8.23302523 86 16.2409189 78 24.1513393 86 32.2491598 78 40.4023199 86 48.5070578 78 56.414334 86 64.2335698 78 72.0597231 86 80.2474705 78.641902 88.4308158 86 96.2186087 78 104.320202 86 112.529331 78 120.439751 86 128.411171 78 136.502703 86 144.547699 78 152.269462 86 160.360994 78 168.360084 86"></polyline>
                            <polyline id="Path-Copy-7" points="0 91 8.23302523 99 16.2409189 91 24.1513393 99 32.2491598 91 40.4023199 99 48.5070578 91 56.414334 99 64.2335698 91 72.0597231 99 80.2474705 91.641902 88.4308158 99 96.2186087 91 104.320202 99 112.529331 91 120.439751 99 128.411171 91 136.502703 99 144.547699 91 152.269462 99 160.360994 91 168.360084 99"></polyline>
                            <polyline id="Path-Copy-8" points="0 104 8.23302523 112 16.2409189 104 24.1513393 112 32.2491598 104 40.4023199 112 48.5070578 104 56.414334 112 64.2335698 104 72.0597231 112 80.2474705 104.641902 88.4308158 112 96.2186087 104 104.320202 112 112.529331 104 120.439751 112 128.411171 104 136.502703 112 144.547699 104 152.269462 112 160.360994 104 168.360084 112"></polyline>
                            <polyline id="Path-Copy-9" points="0 117 8.23302523 125 16.2409189 117 24.1513393 125 32.2491598 117 40.4023199 125 48.5070578 117 56.414334 125 64.2335698 117 72.0597231 125 80.2474705 117.641902 88.4308158 125 96.2186087 117 104.320202 125 112.529331 117 120.439751 125 128.411171 117 136.502703 125 144.547699 117 152.269462 125 160.360994 117 168.360084 125"></polyline>
                            <polyline id="Path-Copy-10" points="0 130 8.23302523 138 16.2409189 130 24.1513393 138 32.2491598 130 40.4023199 138 48.5070578 130 56.414334 138 64.2335698 130 72.0597231 138 80.2474705 130.641902 88.4308158 138 96.2186087 130 104.320202 138 112.529331 130 120.439751 138 128.411171 130 136.502703 138 144.547699 130 152.269462 138 160.360994 130 168.360084 138"></polyline>
                            <polyline id="Path-Copy-11" points="0 143 8.23302523 151 16.2409189 143 24.1513393 151 32.2491598 143 40.4023199 151 48.5070578 143 56.414334 151 64.2335698 143 72.0597231 151 80.2474705 143.641902 88.4308158 151 96.2186087 143 104.320202 151 112.529331 143 120.439751 151 128.411171 143 136.502703 151 144.547699 143 152.269462 151 160.360994 143 168.360084 151"></polyline>
                            <polyline id="Path-Copy-12" points="0 156 8.23302523 164 16.2409189 156 24.1513393 164 32.2491598 156 40.4023199 164 48.5070578 156 56.414334 164 64.2335698 156 72.0597231 164 80.2474705 156.641902 88.4308158 164 96.2186087 156 104.320202 164 112.529331 156 120.439751 164 128.411171 156 136.502703 164 144.547699 156 152.269462 164 160.360994 156 168.360084 164"></polyline>
                            <polyline id="Path-Copy-13" points="0 169 8.23302523 177 16.2409189 169 24.1513393 177 32.2491598 169 40.4023199 177 48.5070578 169 56.414334 177 64.2335698 169 72.0597231 177 80.2474705 169.641902 88.4308158 177 96.2186087 169 104.320202 177 112.529331 169 120.439751 177 128.411171 169 136.502703 177 144.547699 169 152.269462 177 160.360994 169 168.360084 177"></polyline>
                            <polyline id="Path-Copy-14" points="0 182 8.23302523 190 16.2409189 182 24.1513393 190 32.2491598 182 40.4023199 190 48.5070578 182 56.414334 190 64.2335698 182 72.0597231 190 80.2474705 182.641902 88.4308158 190 96.2186087 182 104.320202 190 112.529331 182 120.439751 190 128.411171 182 136.502703 190 144.547699 182 152.269462 190 160.360994 182 168.360084 190"></polyline>
                            <polyline id="Path-Copy-15" points="0 195 8.23302523 203 16.2409189 195 24.1513393 203 32.2491598 195 40.4023199 203 48.5070578 195 56.414334 203 64.2335698 195 72.0597231 203 80.2474705 195.641902 88.4308158 203 96.2186087 195 104.320202 203 112.529331 195 120.439751 203 128.411171 195 136.502703 203 144.547699 195 152.269462 203 160.360994 195 168.360084 203"></polyline>
                            <polyline id="Path-Copy-16" points="0 208 8.23302523 216 16.2409189 208 24.1513393 216 32.2491598 208 40.4023199 216 48.5070578 208 56.414334 216 64.2335698 208 72.0597231 216 80.2474705 208.641902 88.4308158 216 96.2186087 208 104.320202 216 112.529331 208 120.439751 216 128.411171 208 136.502703 216 144.547699 208 152.269462 216 160.360994 208 168.360084 216"></polyline>
                            <polyline id="Path-Copy-17" points="0 221 8.23302523 229 16.2409189 221 24.1513393 229 32.2491598 221 40.4023199 229 48.5070578 221 56.414334 229 64.2335698 221 72.0597231 229 80.2474705 221.641902 88.4308158 229 96.2186087 221 104.320202 229 112.529331 221 120.439751 229 128.411171 221 136.502703 229 144.547699 221 152.269462 229 160.360994 221 168.360084 229"></polyline>
                            <polyline id="Path-Copy-18" points="0 234 8.23302523 242 16.2409189 234 24.1513393 242 32.2491598 234 40.4023199 242 48.5070578 234 56.414334 242 64.2335698 234 72.0597231 242 80.2474705 234.641902 88.4308158 242 96.2186087 234 104.320202 242 112.529331 234 120.439751 242 128.411171 234 136.502703 242 144.547699 234 152.269462 242 160.360994 234 168.360084 242"></polyline>
                            <polyline id="Path-Copy-19" points="0 247 8.23302523 255 16.2409189 247 24.1513393 255 32.2491598 247 40.4023199 255 48.5070578 247 56.414334 255 64.2335698 247 72.0597231 255 80.2474705 247.641902 88.4308158 255 96.2186087 247 104.320202 255 112.529331 247 120.439751 255 128.411171 247 136.502703 255 144.547699 247 152.269462 255 160.360994 247 168.360084 255"></polyline>
                            <polyline id="Path-Copy-20" points="0 260 8.23302523 268 16.2409189 260 24.1513393 268 32.2491598 260 40.4023199 268 48.5070578 260 56.414334 268 64.2335698 260 72.0597231 268 80.2474705 260.641902 88.4308158 268 96.2186087 260 104.320202 268 112.529331 260 120.439751 268 128.411171 260 136.502703 268 144.547699 260 152.269462 268 160.360994 260 168.360084 268"></polyline>
                            <polyline id="Path-Copy-21" points="0 273 8.23302523 281 16.2409189 273 24.1513393 281 32.2491598 273 40.4023199 281 48.5070578 273 56.414334 281 64.2335698 273 72.0597231 281 80.2474705 273.641902 88.4308158 281 96.2186087 273 104.320202 281 112.529331 273 120.439751 281 128.411171 273 136.502703 281 144.547699 273 152.269462 281 160.360994 273 168.360084 281"></polyline>
                            <polyline id="Path-Copy-22" points="0 286 8.23302523 294 16.2409189 286 24.1513393 294 32.2491598 286 40.4023199 294 48.5070578 286 56.414334 294 64.2335698 286 72.0597231 294 80.2474705 286.641902 88.4308158 294 96.2186087 286 104.320202 294 112.529331 286 120.439751 294 128.411171 286 136.502703 294 144.547699 286 152.269462 294 160.360994 286 168.360084 294"></polyline>
                        </g>
                    </g>
                </g>
                <mask id="mask-4" fill="white">
                    <use xlink:href="#path-3"></use>
                </mask>
                <use id="Mask" fill="#FFE676" xlink:href="#path-3"></use>
                <g id="zig-zag-interior" mask="url(#mask-4)">
                    <g transform="translate(-11.000000, 81.228291)">
                        <mask id="mask-6" fill="white">
                            <use xlink:href="#path-5"></use>
                        </mask>
                        <g id="Oval" stroke="none" fill="none" fill-rule="nonzero"></g>
                        <g id="Group" stroke="none" stroke-width="1" fill="none" fill-rule="evenodd" mask="url(#mask-6)">
                            <g transform="translate(36.000000, -81.000000)">
                                <mask id="mask-8" fill="white">
                                    <use xlink:href="#path-7"></use>
                                </mask>
                                <use id="Mask" stroke="none" fill="#FFE676" fill-rule="evenodd" xlink:href="#path-7"></use>
                                <g id="zig-zag-copy" stroke="none" stroke-width="1" fill="none" fill-rule="evenodd" mask="url(#mask-8)" stroke-linecap="round">
                                    <g transform="translate(44.742537, 132.519104) rotate(-10.000000) translate(-44.742537, -132.519104) translate(-39.757463, -14.480896)" fill-rule="nonzero" stroke="#FFFFFF" stroke-width="2">
                                        <polyline id="Path" points="0 0 8.23302523 8 16.2409189 0 24.1513393 8 32.2491598 0 40.4023199 8 48.5070578 0 56.414334 8 64.2335698 0 72.0597231 8 80.2474705 0.641902023 88.4308158 8 96.2186087 0 104.320202 8 112.529331 0 120.439751 8 128.411171 0 136.502703 8 144.547699 0 152.269462 8 160.360994 0 168.360084 8"></polyline>
                                        <polyline id="Path-Copy" points="0 13 8.23302523 21 16.2409189 13 24.1513393 21 32.2491598 13 40.4023199 21 48.5070578 13 56.414334 21 64.2335698 13 72.0597231 21 80.2474705 13.641902 88.4308158 21 96.2186087 13 104.320202 21 112.529331 13 120.439751 21 128.411171 13 136.502703 21 144.547699 13 152.269462 21 160.360994 13 168.360084 21"></polyline>
                                        <polyline id="Path-Copy-2" points="0 26 8.23302523 34 16.2409189 26 24.1513393 34 32.2491598 26 40.4023199 34 48.5070578 26 56.414334 34 64.2335698 26 72.0597231 34 80.2474705 26.641902 88.4308158 34 96.2186087 26 104.320202 34 112.529331 26 120.439751 34 128.411171 26 136.502703 34 144.547699 26 152.269462 34 160.360994 26 168.360084 34"></polyline>
                                        <polyline id="Path-Copy-3" points="0 39 8.23302523 47 16.2409189 39 24.1513393 47 32.2491598 39 40.4023199 47 48.5070578 39 56.414334 47 64.2335698 39 72.0597231 47 80.2474705 39.641902 88.4308158 47 96.2186087 39 104.320202 47 112.529331 39 120.439751 47 128.411171 39 136.502703 47 144.547699 39 152.269462 47 160.360994 39 168.360084 47"></polyline>
                                        <polyline id="Path-Copy-4" points="0 52 8.23302523 60 16.2409189 52 24.1513393 60 32.2491598 52 40.4023199 60 48.5070578 52 56.414334 60 64.2335698 52 72.0597231 60 80.2474705 52.641902 88.4308158 60 96.2186087 52 104.320202 60 112.529331 52 120.439751 60 128.411171 52 136.502703 60 144.547699 52 152.269462 60 160.360994 52 168.360084 60"></polyline>
                                        <polyline id="Path-Copy-5" points="0 65 8.23302523 73 16.2409189 65 24.1513393 73 32.2491598 65 40.4023199 73 48.5070578 65 56.414334 73 64.2335698 65 72.0597231 73 80.2474705 65.641902 88.4308158 73 96.2186087 65 104.320202 73 112.529331 65 120.439751 73 128.411171 65 136.502703 73 144.547699 65 152.269462 73 160.360994 65 168.360084 73"></polyline>
                                        <polyline id="Path-Copy-6" points="0 78 8.23302523 86 16.2409189 78 24.1513393 86 32.2491598 78 40.4023199 86 48.5070578 78 56.414334 86 64.2335698 78 72.0597231 86 80.2474705 78.641902 88.4308158 86 96.2186087 78 104.320202 86 112.529331 78 120.439751 86 128.411171 78 136.502703 86 144.547699 78 152.269462 86 160.360994 78 168.360084 86"></polyline>
                                        <polyline id="Path-Copy-7" points="0 91 8.23302523 99 16.2409189 91 24.1513393 99 32.2491598 91 40.4023199 99 48.5070578 91 56.414334 99 64.2335698 91 72.0597231 99 80.2474705 91.641902 88.4308158 99 96.2186087 91 104.320202 99 112.529331 91 120.439751 99 128.411171 91 136.502703 99 144.547699 91 152.269462 99 160.360994 91 168.360084 99"></polyline>
                                        <polyline id="Path-Copy-8" points="0 104 8.23302523 112 16.2409189 104 24.1513393 112 32.2491598 104 40.4023199 112 48.5070578 104 56.414334 112 64.2335698 104 72.0597231 112 80.2474705 104.641902 88.4308158 112 96.2186087 104 104.320202 112 112.529331 104 120.439751 112 128.411171 104 136.502703 112 144.547699 104 152.269462 112 160.360994 104 168.360084 112"></polyline>
                                        <polyline id="Path-Copy-9" points="0 117 8.23302523 125 16.2409189 117 24.1513393 125 32.2491598 117 40.4023199 125 48.5070578 117 56.414334 125 64.2335698 117 72.0597231 125 80.2474705 117.641902 88.4308158 125 96.2186087 117 104.320202 125 112.529331 117 120.439751 125 128.411171 117 136.502703 125 144.547699 117 152.269462 125 160.360994 117 168.360084 125"></polyline>
                                        <polyline id="Path-Copy-10" points="0 130 8.23302523 138 16.2409189 130 24.1513393 138 32.2491598 130 40.4023199 138 48.5070578 130 56.414334 138 64.2335698 130 72.0597231 138 80.2474705 130.641902 88.4308158 138 96.2186087 130 104.320202 138 112.529331 130 120.439751 138 128.411171 130 136.502703 138 144.547699 130 152.269462 138 160.360994 130 168.360084 138"></polyline>
                                        <polyline id="Path-Copy-11" points="0 143 8.23302523 151 16.2409189 143 24.1513393 151 32.2491598 143 40.4023199 151 48.5070578 143 56.414334 151 64.2335698 143 72.0597231 151 80.2474705 143.641902 88.4308158 151 96.2186087 143 104.320202 151 112.529331 143 120.439751 151 128.411171 143 136.502703 151 144.547699 143 152.269462 151 160.360994 143 168.360084 151"></polyline>
                                        <polyline id="Path-Copy-12" points="0 156 8.23302523 164 16.2409189 156 24.1513393 164 32.2491598 156 40.4023199 164 48.5070578 156 56.414334 164 64.2335698 156 72.0597231 164 80.2474705 156.641902 88.4308158 164 96.2186087 156 104.320202 164 112.529331 156 120.439751 164 128.411171 156 136.502703 164 144.547699 156 152.269462 164 160.360994 156 168.360084 164"></polyline>
                                        <polyline id="Path-Copy-13" points="0 169 8.23302523 177 16.2409189 169 24.1513393 177 32.2491598 169 40.4023199 177 48.5070578 169 56.414334 177 64.2335698 169 72.0597231 177 80.2474705 169.641902 88.4308158 177 96.2186087 169 104.320202 177 112.529331 169 120.439751 177 128.411171 169 136.502703 177 144.547699 169 152.269462 177 160.360994 169 168.360084 177"></polyline>
                                        <polyline id="Path-Copy-14" points="0 182 8.23302523 190 16.2409189 182 24.1513393 190 32.2491598 182 40.4023199 190 48.5070578 182 56.414334 190 64.2335698 182 72.0597231 190 80.2474705 182.641902 88.4308158 190 96.2186087 182 104.320202 190 112.529331 182 120.439751 190 128.411171 182 136.502703 190 144.547699 182 152.269462 190 160.360994 182 168.360084 190"></polyline>
                                        <polyline id="Path-Copy-15" points="0 195 8.23302523 203 16.2409189 195 24.1513393 203 32.2491598 195 40.4023199 203 48.5070578 195 56.414334 203 64.2335698 195 72.0597231 203 80.2474705 195.641902 88.4308158 203 96.2186087 195 104.320202 203 112.529331 195 120.439751 203 128.411171 195 136.502703 203 144.547699 195 152.269462 203 160.360994 195 168.360084 203"></polyline>
                                        <polyline id="Path-Copy-16" points="0 208 8.23302523 216 16.2409189 208 24.1513393 216 32.2491598 208 40.4023199 216 48.5070578 208 56.414334 216 64.2335698 208 72.0597231 216 80.2474705 208.641902 88.4308158 216 96.2186087 208 104.320202 216 112.529331 208 120.439751 216 128.411171 208 136.502703 216 144.547699 208 152.269462 216 160.360994 208 168.360084 216"></polyline>
                                        <polyline id="Path-Copy-17" points="0 221 8.23302523 229 16.2409189 221 24.1513393 229 32.2491598 221 40.4023199 229 48.5070578 221 56.414334 229 64.2335698 221 72.0597231 229 80.2474705 221.641902 88.4308158 229 96.2186087 221 104.320202 229 112.529331 221 120.439751 229 128.411171 221 136.502703 229 144.547699 221 152.269462 229 160.360994 221 168.360084 229"></polyline>
                                        <polyline id="Path-Copy-18" points="0 234 8.23302523 242 16.2409189 234 24.1513393 242 32.2491598 234 40.4023199 242 48.5070578 234 56.414334 242 64.2335698 234 72.0597231 242 80.2474705 234.641902 88.4308158 242 96.2186087 234 104.320202 242 112.529331 234 120.439751 242 128.411171 234 136.502703 242 144.547699 234 152.269462 242 160.360994 234 168.360084 242"></polyline>
                                        <polyline id="Path-Copy-19" points="0 247 8.23302523 255 16.2409189 247 24.1513393 255 32.2491598 247 40.4023199 255 48.5070578 247 56.414334 255 64.2335698 247 72.0597231 255 80.2474705 247.641902 88.4308158 255 96.2186087 247 104.320202 255 112.529331 247 120.439751 255 128.411171 247 136.502703 255 144.547699 247 152.269462 255 160.360994 247 168.360084 255"></polyline>
                                        <polyline id="Path-Copy-20" points="0 260 8.23302523 268 16.2409189 260 24.1513393 268 32.2491598 260 40.4023199 268 48.5070578 260 56.414334 268 64.2335698 260 72.0597231 268 80.2474705 260.641902 88.4308158 268 96.2186087 260 104.320202 268 112.529331 260 120.439751 268 128.411171 260 136.502703 268 144.547699 260 152.269462 268 160.360994 260 168.360084 268"></polyline>
                                        <polyline id="Path-Copy-21" points="0 273 8.23302523 281 16.2409189 273 24.1513393 281 32.2491598 273 40.4023199 281 48.5070578 273 56.414334 281 64.2335698 273 72.0597231 281 80.2474705 273.641902 88.4308158 281 96.2186087 273 104.320202 281 112.529331 273 120.439751 281 128.411171 273 136.502703 281 144.547699 273 152.269462 281 160.360994 273 168.360084 281"></polyline>
                                        <polyline id="Path-Copy-22" points="0 286 8.23302523 294 16.2409189 286 24.1513393 294 32.2491598 286 40.4023199 294 48.5070578 286 56.414334 294 64.2335698 286 72.0597231 294 80.2474705 286.641902 88.4308158 294 96.2186087 286 104.320202 294 112.529331 286 120.439751 294 128.411171 286 136.502703 294 144.547699 286 152.269462 294 160.360994 286 168.360084 294"></polyline>
                                    </g>
                                </g>
                            </g>
                        </g>
                    </g>
                </g>
            </g>
        </g>
    </g>
</svg>