<svg enable-background="new -291 293 16 15" viewBox="-291 293 16 15" xmlns="http://www.w3.org/2000/svg"><path d="m-186 298.7c2 0 3.6.7 5 2s2 3 2 5c0 1.6-.5 2.9-1.4 4.1s-2 2-3.4 2.5c-.2 0-.3 0-.4-.1s-.1-.2-.1-.3v-1.9c0-.3 0-.6-.1-.8s-.2-.4-.3-.5c.8-.1 1.5-.3 2.2-.8s1-1.4 1-2.7c0-.4-.1-.7-.2-1s-.3-.6-.5-.8c.1-.1.1-.3.1-.6s0-.7-.2-1.2c0 0-.2 0-.5 0s-.8.3-1.5.7c-.6-.2-1.1-.2-1.7-.2s-1.2.1-1.8.2c-.7-.4-1.2-.7-1.5-.7s-.5 0-.5 0c-.2.5-.2.9-.2 1.2s.1.5.1.6c-.2.2-.4.5-.5.8s-.2.7-.2 1c0 1.3.4 2.2 1 2.7s1.4.7 2.2.8c-.1.1-.2.2-.3.4s-.1.3-.2.6c-.2.1-.5.2-.9.2s-.8-.3-1.1-.8c0 0-.1-.1-.3-.3s-.4-.3-.8-.4c0 0-.1 0-.3 0s-.1.2.2.4c0 0 .1.1.3.2.2.2.3.4.5.8 0 .1.1.3.4.6s1 .4 1.9.2v1.3c0 .1 0 .2-.1.3s-.2.1-.4.1c-1.4-.5-2.6-1.3-3.4-2.5s-1.3-2.6-1.4-4.1c0-2 .7-3.6 2-5 1.7-1.3 3.3-2 5.3-2z" fill="#222" transform="translate(-97 -5)"/></svg>